<svg id="Designed_by_Freepik" data-name="Designed by Freepik" xmlns="http://www.w3.org/2000/svg" viewBox="0 0 359.79167 304.66667">
  <title>Как выбрать кабину мобильная версия_Монтажная область 8</title>
  <g id="Objects">
    <g>
      <path d="M26.60742,213.7041h-4.501v11.77539H20.88184V213.7041h-4.501v-1.04395H26.60742v1.04395Z"/>
      <path d="M34.47363,220.8877c0,2.98926-1.6748,4.8623-4.35742,4.8623-2.70117,0-4.41113-1.90918-4.41113-4.89746,0-2.97168,1.72852-4.89746,4.41113-4.89746C32.78125,215.95508,34.47363,217.86328,34.47363,220.8877Zm-7.61621-.03516c0,2.43066,1.24219,3.96094,3.27637,3.96094,1.96289,0,3.20508-1.53027,3.20508-3.94336s-1.25977-3.96094-3.24121-3.96094C28.13574,216.90918,26.85742,218.457,26.85742,220.85254Z"/>
      <path d="M42.17773,225.47949v-8.30078H38.39648l-0.16211,4.64551c-0.08984,2.75488-.918,3.85352-2.41309,3.85352a2.8452,2.8452,0,0,1-.99023-0.19824v-0.918a2.75687,2.75687,0,0,0,1.00879.16211c0.75586,0,1.20605-.8291,1.27832-2.95312l0.17969-5.5459h6.01367v9.25488H42.17773Z"/>
      <path d="M46.53125,216.22461v3.63672H50.042a2.81181,2.81181,0,1,1,0,5.61816H45.39746v-9.25488h1.13379Zm3.24121,4.5918H46.53125v3.709h3.24121A1.86574,1.86574,0,1,0,49.77246,220.81641Z"/>
      <path d="M62.44531,225.47949H61.02344l-3.583-4.87988-1.89062,1.74707v3.13281H54.415v-9.25488H55.5498V220.96l5.14941-4.73535h1.51172l-3.94238,3.60156Z"/>
      <path d="M71.71582,220.8877c0,2.98926-1.6748,4.8623-4.35742,4.8623-2.70117,0-4.41113-1.90918-4.41113-4.89746,0-2.97168,1.72852-4.89746,4.41113-4.89746C70.02344,215.95508,71.71582,217.86328,71.71582,220.8877Zm-7.61621-.03516c0,2.43066,1.24219,3.96094,3.27637,3.96094,1.96289,0,3.20508-1.53027,3.20508-3.94336s-1.25977-3.96094-3.24121-3.96094C65.37793,216.90918,64.09961,218.457,64.09961,220.85254Z"/>
      <path d="M86.458,225.47949H85.03516l-3.583-4.87988-1.89062,1.74707v3.13281H78.42773v-9.25488h1.13379V220.96l5.14941-4.73535h1.5127l-3.94336,3.60156Z"/>
      <path d="M95.54785,225.42578a2.56616,2.56616,0,0,1-.90039.14355c-1.09863,0-1.20605-.8457-1.20605-1.69238a3.87692,3.87692,0,0,1-3.49316,1.85449c-1.89062,0-3.02539-.97168-3.02539-2.59277,0-1.69238,1.15234-2.62891,3.43945-2.8623a6.99285,6.99285,0,0,0,2.7002-.48633,0.94474,0.94474,0,0,0,.32422-0.88281c0-1.53027-.93555-1.998-2.41211-1.998a2.18192,2.18192,0,0,0-2.52148,2.17871H87.373c0.08984-1.98047,1.44043-3.11523,3.72754-3.11523,2.08887,0,3.40234.918,3.40234,2.665v5.041c0,0.55859-.01758.93652,0.6123,0.93652a1.35146,1.35146,0,0,0,.43262-0.05371v0.86426Zm-4.68164-4.33984c-1.16992.16211-2.75488,0.43262-2.75488,1.94531,0,1.08008.82813,1.76367,2.125,1.76367a2.9154,2.9154,0,0,0,3.15039-2.84473v-1.5127C93.02734,220.834,92.1084,220.92383,90.86621,221.08594Z"/>
      <path d="M99.37988,221.626c-1.873,0-2.93457-.82812-2.93457-2.98828v-2.41309H97.5791v2.53906c0,1.80078,1.13477,1.83594,2.03516,1.83594a9.26531,9.26531,0,0,0,2.93457-.55762v-3.81738h1.13477v9.25488h-1.13477v-4.41113A10.55122,10.55122,0,0,1,99.37988,221.626Z"/>
      <path d="M109.51465,225.78516c-2.5752,0-4.25-1.89062-4.25-4.8252s1.74707-4.9873,4.23145-4.9873c2.7373,0,4.06934,2.26855,4.06934,4.8252v0.32422H106.417c0,1.94434.90039,3.74512,3.13281,3.74512a2.74645,2.74645,0,0,0,2.82715-2.43066h1.09863A3.80926,3.80926,0,0,1,109.51465,225.78516Zm-0.05469-8.876c-2.0166,0-2.82617,1.56641-3.043,3.29492h6.01367C112.30469,218.15137,111.18848,216.90918,109.46,216.90918Z"/>
      <path d="M118.96387,225.75c-2.59277,0-4.28516-1.89062-4.28516-4.80762,0-3.02539,1.71094-4.9873,4.32129-4.9873a3.4974,3.4974,0,0,1,3.79883,3.18652h-1.15234a2.50891,2.50891,0,0,0-2.62891-2.251c-1.94434,0-3.16895,1.54883-3.16895,3.96191,0,2.41211,1.18848,3.96094,3.06152,3.96094a2.75384,2.75384,0,0,0,2.82715-2.64746h1.13379A3.817,3.817,0,0,1,118.96387,225.75Z"/>
      <path d="M127.94629,217.17871v8.30078h-1.13477v-8.30078H123.373v-0.9541h8.01172v0.9541h-3.43848Z"/>
      <path d="M136.7666,225.47949h-4.33984v-9.25488h4.33984c1.88965,0,2.9707.77441,2.9707,2.19727a2.06847,2.06847,0,0,1-1.60254,2.124V220.582a2.15416,2.15416,0,0,1,1.96191,2.30469C140.09668,224.56152,138.90918,225.47949,136.7666,225.47949Zm-0.127-8.30078h-3.07812v3.02539h3.07813c1.2793,0,1.96289-.55859,1.96289-1.49512C138.60254,217.70117,137.9541,217.17871,136.63965,217.17871Zm0,3.90723h-3.07812v3.43945h3.07813c1.585,0,2.32324-.59473,2.32324-1.76465C138.96289,221.69824,138.18848,221.08594,136.63965,221.08594Z"/>
      <path d="M145.53223,225.78516c-2.5752,0-4.25-1.89062-4.25-4.8252s1.74707-4.9873,4.23145-4.9873c2.7373,0,4.06934,2.26855,4.06934,4.8252v0.32422h-7.14844c0,1.94434.90039,3.74512,3.13281,3.74512a2.74645,2.74645,0,0,0,2.82715-2.43066h1.09863A3.80926,3.80926,0,0,1,145.53223,225.78516Zm-0.05469-8.876c-2.0166,0-2.82617,1.56641-3.043,3.29492h6.01367C148.32227,218.15137,147.20605,216.90918,145.47754,216.90918Z"/>
      <path d="M157.52051,225.47949v-4.35742h-5.27539v4.35742h-1.13477v-9.25488h1.13477V220.168h5.27539v-3.94336h1.13379v9.25488h-1.13379Z"/>
      <path d="M167.18652,225.47949v-4.35742h-5.27539v4.35742h-1.13477v-9.25488h1.13477V220.168h5.27539v-3.94336h1.13379v9.25488h-1.13379Z"/>
      <path d="M178.58008,225.42578a2.56259,2.56259,0,0,1-.90039.14355c-1.09766,0-1.20605-.8457-1.20605-1.69238a3.87584,3.87584,0,0,1-3.49316,1.85449c-1.89062,0-3.02441-.97168-3.02441-2.59277,0-1.69238,1.15234-2.62891,3.43848-2.8623a6.99927,6.99927,0,0,0,2.70117-.48633,0.94474,0.94474,0,0,0,.32422-0.88281c0-1.53027-.93652-1.998-2.41309-1.998a2.18067,2.18067,0,0,0-2.52051,2.17871h-1.08008c0.08984-1.98047,1.44043-3.11523,3.72656-3.11523,2.08887,0,3.40332.918,3.40332,2.665v5.041c0,0.55859-.01758.93652,0.6123,0.93652a1.3459,1.3459,0,0,0,.43164-0.05371v0.86426Zm-4.68066-4.33984c-1.1709.16211-2.75488,0.43262-2.75488,1.94531,0,1.08008.82813,1.76367,2.124,1.76367a2.91625,2.91625,0,0,0,3.15137-2.84473v-1.5127C176.05957,220.834,175.1416,220.92383,173.89941,221.08594Z"/>
      <path d="M185.81641,225.47949v-3.88965h-2.30469l-3.25977,3.88965h-1.47559l3.43848-3.9248a2.62658,2.62658,0,0,1-2.75488-2.665,2.56453,2.56453,0,0,1,2.80859-2.665h4.68164v9.25488h-1.13379Zm-3.27734-8.30078a1.74049,1.74049,0,1,0,0,3.457h3.27734v-3.457h-3.27734Z"/>
      <path d="M203.20508,225.75a2.69211,2.69211,0,0,1-2.32324-1.24316c-0.03613.01855-.03613,0-0.03613,0v4.42969l-1.13379-.01758v-4.41211s0,0.01855-.03613,0a2.69211,2.69211,0,0,1-2.32324,1.24316c-1.94434,0-3.60059-1.76465-3.60059-4.87988,0-3.24121,1.36816-4.95117,3.61914-4.95117a2.589,2.589,0,0,1,2.30469,1.25977h0.03613v-4.51855h1.13379v4.51855h0.03613a2.589,2.589,0,0,1,2.30469-1.25977c2.251,0,3.61914,1.71,3.61914,4.95117C206.80566,223.98535,205.14941,225.75,203.20508,225.75Zm-3.49316-6.89648a1.96986,1.96986,0,0,0-2.05273-1.98047c-1.53027,0-2.77344,1.16992-2.77344,3.99707,0,2.75488,1.13477,3.9248,2.75488,3.9248a1.97181,1.97181,0,0,0,2.07129-2.0166v-3.9248Zm3.18652-1.98047a1.96986,1.96986,0,0,0-2.05273,1.98047v3.9248a1.97181,1.97181,0,0,0,2.07129,2.0166c1.62012,0,2.75488-1.16992,2.75488-3.9248C205.67188,218.043,204.42871,216.873,202.89844,216.873Z"/>
      <path d="M211.89746,225.82129c-0.81055,2.16113-1.24316,3.16895-2.7373,3.16895a5.99286,5.99286,0,0,1-.99023-0.08984v-0.99023a2.75181,2.75181,0,0,0,.81055.126c1.09766,0,1.4043-1.09863,1.98047-2.62891l-3.72754-9.18262h1.24316l2.502,6.374c0.32422,0.84668.19824,0.54,0.55859,1.63867,0.28809-.93652.39648-1.333,0.55762-1.76465l2.28711-6.248h1.15234Z"/>
      <path d="M217.74609,218.00684a3.41512,3.41512,0,0,1,3.31348-2.05176c2.52051,0,4.17676,1.96191,4.17676,4.93262,0,2.93555-1.65625,4.87988-4.14062,4.87988a3.39,3.39,0,0,1-3.27734-1.999v5.168h-1.09863V216.22461h1.02637v1.78223Zm0.03613,2.86328c0,2.43066,1.22461,3.94336,3.16895,3.94336,1.89063,0,3.13281-1.54883,3.13281-3.92578,0-2.43066-1.22363-3.99707-3.16895-3.99707C218.9707,216.89063,217.78223,218.38574,217.78223,220.87012Z"/>
      <path d="M233.38965,225.47949v-4.35742h-5.27539v4.35742h-1.13477v-9.25488h1.13477V220.168h5.27539v-3.94336h1.13379v9.25488h-1.13379Z"/>
      <path d="M243.05566,225.47949v-7.92285l-5.00586,7.92285h-1.4043v-9.25488h1.13477v7.92285l5.00488-7.92285h1.4043v9.25488h-1.13379Z"/>
      <path d="M249.82227,217.17871v8.30078H248.6875v-8.30078H245.249v-0.9541h8.01172v0.9541h-3.43848Z"/>
      <path d="M257.88574,225.82129c-0.81055,2.16113-1.24219,3.16895-2.73633,3.16895a5.9736,5.9736,0,0,1-.99023-0.08984v-0.99023a2.74213,2.74213,0,0,0,.80957.126c1.09863,0,1.4043-1.09863,1.98047-2.62891l-3.72656-9.18262h1.24219l2.50293,6.374c0.32422,0.84668.19824,0.54,0.55762,1.63867,0.28809-.93652.39648-1.333,0.55859-1.76465l2.28711-6.248h1.15234Z"/>
      <path d="M263.73535,218.00684a3.41468,3.41468,0,0,1,3.3125-2.05176c2.52148,0,4.17773,1.96191,4.17773,4.93262,0,2.93555-1.65625,4.87988-4.1416,4.87988a3.38953,3.38953,0,0,1-3.27637-1.999v5.168H262.709V216.22461h1.02637v1.78223Zm0.03613,2.86328c0,2.43066,1.22363,3.94336,3.16895,3.94336,1.89063,0,3.13281-1.54883,3.13281-3.92578,0-2.43066-1.22461-3.99707-3.16895-3.99707S263.77148,218.38574,263.77148,220.87012Z"/>
      <path d="M281.10742,225.42578a2.56616,2.56616,0,0,1-.90039.14355c-1.09863,0-1.20605-.8457-1.20605-1.69238a3.87692,3.87692,0,0,1-3.49316,1.85449c-1.89062,0-3.02539-.97168-3.02539-2.59277,0-1.69238,1.15234-2.62891,3.43945-2.8623a6.99285,6.99285,0,0,0,2.7002-.48633,0.94474,0.94474,0,0,0,.32422-0.88281c0-1.53027-.93555-1.998-2.41211-1.998a2.18192,2.18192,0,0,0-2.52148,2.17871h-1.08008c0.08984-1.98047,1.44043-3.11523,3.72754-3.11523,2.08887,0,3.40234.918,3.40234,2.665v5.041c0,0.55859-.01758.93652,0.6123,0.93652a1.35146,1.35146,0,0,0,.43262-0.05371v0.86426Zm-4.68164-4.33984c-1.16992.16211-2.75488,0.43262-2.75488,1.94531,0,1.08008.82813,1.76367,2.125,1.76367a2.9154,2.9154,0,0,0,3.15039-2.84473v-1.5127C278.58691,220.834,277.668,220.92383,276.42578,221.08594Z"/>
      <path d="M291.18555,225.75c-2.59277,0-4.28516-1.89062-4.28516-4.80762,0-3.02539,1.71094-4.9873,4.32129-4.9873a3.4974,3.4974,0,0,1,3.79883,3.18652h-1.15234a2.50891,2.50891,0,0,0-2.62891-2.251c-1.94434,0-3.16895,1.54883-3.16895,3.96191,0,2.41211,1.18848,3.96094,3.06152,3.96094A2.75384,2.75384,0,0,0,293.959,222.166h1.13379A3.817,3.817,0,0,1,291.18555,225.75Z"/>
      <path d="M18.793,238.17871v8.30078H17.65918v-9.25488h6.13965v0.9541H18.793Z"/>
      <path d="M32.4209,246.42578a2.56259,2.56259,0,0,1-.90039.14355c-1.09766,0-1.20605-.8457-1.20605-1.69238a3.87584,3.87584,0,0,1-3.49316,1.85449c-1.89062,0-3.02441-.97168-3.02441-2.59277,0-1.69238,1.15234-2.62891,3.43848-2.8623a6.99927,6.99927,0,0,0,2.70117-.48633,0.94474,0.94474,0,0,0,.32422-0.88281c0-1.53027-.93652-1.998-2.41309-1.998a2.18067,2.18067,0,0,0-2.52051,2.17871H24.24707c0.08984-1.98047,1.44043-3.11523,3.72656-3.11523,2.08887,0,3.40332.918,3.40332,2.665v5.041c0,0.55859-.01758.93652,0.6123,0.93652a1.3459,1.3459,0,0,0,.43164-0.05371v0.86426Zm-4.68066-4.33984c-1.1709.16211-2.75488,0.43262-2.75488,1.94531,0,1.08008.82813,1.76367,2.124,1.76367a2.91625,2.91625,0,0,0,3.15137-2.84473v-1.5127C29.90039,241.834,28.98242,241.92383,27.74023,242.08594Z"/>
      <path d="M34.72363,239.00684a3.41468,3.41468,0,0,1,3.3125-2.05176c2.52148,0,4.17773,1.96191,4.17773,4.93262,0,2.93555-1.65625,4.87988-4.1416,4.87988a3.38953,3.38953,0,0,1-3.27637-1.999v5.168H33.69727V237.22461h1.02637v1.78223Zm0.03613,2.86328c0,2.43066,1.22363,3.94336,3.16895,3.94336,1.89063,0,3.13281-1.54883,3.13281-3.92578,0-2.43066-1.22461-3.99707-3.16895-3.99707S34.75977,239.38574,34.75977,241.87012Z"/>
      <path d="M52.09473,246.42578a2.56259,2.56259,0,0,1-.90039.14355c-1.09766,0-1.20605-.8457-1.20605-1.69238a3.87584,3.87584,0,0,1-3.49316,1.85449c-1.89062,0-3.02441-.97168-3.02441-2.59277,0-1.69238,1.15234-2.62891,3.43848-2.8623a6.99927,6.99927,0,0,0,2.70117-.48633,0.94474,0.94474,0,0,0,.32422-0.88281c0-1.53027-.93652-1.998-2.41309-1.998a2.18067,2.18067,0,0,0-2.52051,2.17871H43.9209c0.08984-1.98047,1.44043-3.11523,3.72656-3.11523,2.08887,0,3.40332.918,3.40332,2.665v5.041c0,0.55859-.01758.93652,0.6123,0.93652a1.3459,1.3459,0,0,0,.43164-0.05371v0.86426Zm-4.68066-4.33984c-1.1709.16211-2.75488,0.43262-2.75488,1.94531,0,1.08008.82813,1.76367,2.124,1.76367a2.91625,2.91625,0,0,0,3.15137-2.84473v-1.5127C49.57422,241.834,48.65625,241.92383,47.41406,242.08594Z"/>
      <path d="M59.709,246.47949v-4.35742H54.43359v4.35742H53.29883v-9.25488h1.13477V241.168H59.709v-3.94336h1.13379v9.25488H59.709Z"/>
      <path d="M66.47559,238.17871v8.30078H65.34082v-8.30078H61.90234v-0.9541h8.01172v0.9541H66.47559Z"/>
      <path d="M77.36621,246.47949v-7.92285l-5.00586,7.92285h-1.4043v-9.25488h1.13477v7.92285l5.00488-7.92285H78.5v9.25488H77.36621Z"/>
      <path d="M84.38574,246.78516c-2.5752,0-4.25-1.89062-4.25-4.8252s1.74707-4.9873,4.23145-4.9873c2.7373,0,4.06934,2.26855,4.06934,4.8252v0.32422H81.28809c0,1.94434.90039,3.74512,3.13281,3.74512a2.74645,2.74645,0,0,0,2.82715-2.43066h1.09863A3.80926,3.80926,0,0,1,84.38574,246.78516Zm-0.05469-8.876c-2.0166,0-2.82617,1.56641-3.043,3.29492h6.01367C87.17578,239.15137,86.05957,237.90918,84.33105,237.90918Z"/>
      <path d="M96.374,246.47949v-7.92285l-5.00586,7.92285h-1.4043v-9.25488h1.13477v7.92285l5.00488-7.92285h1.4043v9.25488H96.374Zm-4.502-12.85547a1.67048,1.67048,0,0,0,1.85547,1.47559,1.77721,1.77721,0,0,0,1.9082-1.47559h0.70215a2.50016,2.50016,0,0,1-2.62891,2.34082,2.36107,2.36107,0,0,1-2.53906-2.34082h0.70215Z"/>
      <path d="M112.95215,241.8877c0,2.98926-1.67383,4.8623-4.35742,4.8623-2.7002,0-4.41113-1.90918-4.41113-4.89746,0-2.97168,1.72852-4.89746,4.41113-4.89746C111.25977,236.95508,112.95215,238.86328,112.95215,241.8877Zm-7.61621-.03516c0,2.43066,1.24219,3.96094,3.27734,3.96094,1.96191,0,3.20508-1.53027,3.20508-3.94336s-1.26074-3.96094-3.24121-3.96094C106.61426,237.90918,105.33594,239.457,105.33594,241.85254Z"/>
      <path d="M117.8291,238.17871v8.30078h-1.13477v-8.30078h-3.43848v-0.9541h8.01172v0.9541H117.8291Z"/>
      <path d="M135.2002,246.47949h-8.30078c0.16211-2.7373,1.9082-3.81738,3.96094-5.168,1.42285-.93555,3.13281-1.998,3.13281-3.9248a2.5419,2.5419,0,0,0-2.79-2.59277c-2.17871,0-2.88086,1.585-2.88086,3.457h-1.11719v-0.16211c0-2.665,1.53125-4.28516,4.05176-4.28516,2.3584,0,3.88867,1.4043,3.88867,3.56543,0,2.502-2.23242,3.85254-4.08691,5.041-1.20605.77441-2.62891,1.62109-2.88086,3.0791,0.126,0,.23438-0.01855.30664-0.01855h6.71582v1.00879Z"/>
      <path d="M148.77148,246.47949v-8.30078h-3.78125l-0.16211,4.64551c-0.08984,2.75488-.918,3.85352-2.41211,3.85352a2.836,2.836,0,0,1-.99023-0.19824v-0.918a2.755,2.755,0,0,0,1.00781.16211c0.75684,0,1.207-.8291,1.27832-2.95312l0.18066-5.5459h6.01367v9.25488h-1.13477Z"/>
      <path d="M155.75488,246.78516c-2.5752,0-4.25-1.89062-4.25-4.8252s1.74707-4.9873,4.23145-4.9873c2.7373,0,4.06934,2.26855,4.06934,4.8252v0.32422h-7.14844c0,1.94434.90039,3.74512,3.13281,3.74512a2.74645,2.74645,0,0,0,2.82715-2.43066h1.09863A3.80926,3.80926,0,0,1,155.75488,246.78516Zm-0.05469-8.876c-2.0166,0-2.82617,1.56641-3.043,3.29492h6.01367C158.54492,239.15137,157.42871,237.90918,155.7002,237.90918Z"/>
      <path d="M164.52051,238.17871v8.30078h-1.13477v-8.30078h-3.43848v-0.9541H167.959v0.9541h-3.43848Z"/>
    </g>
    <g>
      <path d="M22.17285,8.30957l6.06836,7.58008H26.6748l-5.36621-6.752-2.44824,2.23242v4.51953h-1.207V3.07031h1.207V9.96582L26.332,3.07031h1.62109Z"/>
      <path d="M37.41992,11.29785c0,2.98926-1.67383,4.8623-4.35742,4.8623-2.7002,0-4.41113-1.90918-4.41113-4.89746,0-2.97168,1.72852-4.89746,4.41113-4.89746C35.72754,6.36523,37.41992,8.27344,37.41992,11.29785Zm-7.61621-.03516c0,2.43066,1.24219,3.96094,3.27734,3.96094,1.96191,0,3.20508-1.53027,3.20508-3.94336s-1.26074-3.96094-3.24121-3.96094C31.082,7.31934,29.80371,8.86719,29.80371,11.2627Z"/>
      <path d="M45.51953,15.88965V11.53223H40.24414v4.35742H39.10938V6.63477h1.13477v3.94336h5.27539V6.63477h1.13379v9.25488H45.51953Z"/>
      <path d="M52.64648,16.16016c-2.59277,0-4.28516-1.89062-4.28516-4.80762,0-3.02539,1.71094-4.9873,4.32129-4.9873a3.4974,3.4974,0,0,1,3.79883,3.18652H55.3291a2.50891,2.50891,0,0,0-2.62891-2.251c-1.94434,0-3.16895,1.54883-3.16895,3.96191,0,2.41211,1.18848,3.96094,3.06152,3.96094a2.75384,2.75384,0,0,0,2.82715-2.64746h1.13379A3.817,3.817,0,0,1,52.64648,16.16016Z"/>
      <path d="M61.62793,7.58887v8.30078H60.49414V7.58887H57.05469V6.63477h8.0127v0.9541H61.62793Z"/>
      <path d="M67.207,8.417a3.41512,3.41512,0,0,1,3.31348-2.05176c2.52051,0,4.17676,1.96191,4.17676,4.93262,0,2.93555-1.65625,4.87988-4.14062,4.87988a3.39,3.39,0,0,1-3.27734-1.999v5.168H66.18066V6.63477H67.207V8.417Zm0.03613,2.86328c0,2.43066,1.22461,3.94336,3.16895,3.94336,1.89063,0,3.13281-1.54883,3.13281-3.92578,0-2.43066-1.22363-3.99707-3.16895-3.99707C68.43164,7.30078,67.24316,8.7959,67.24316,11.28027Z"/>
      <path d="M79.80762,16.23145c-0.81055,2.16113-1.24219,3.16895-2.73633,3.16895a5.97361,5.97361,0,0,1-.99023-0.08984V18.32031a2.74213,2.74213,0,0,0,.80957.126c1.09863,0,1.4043-1.09863,1.98047-2.62891L75.14453,6.63477h1.24219l2.50293,6.374c0.32422,0.84668.19824,0.54,0.55762,1.63867,0.28809-.93652.39648-1.333,0.55859-1.76465l2.28711-6.248h1.15234Z"/>
      <path d="M92.60742,15.88965H91.18457l-3.583-4.87988-1.89062,1.74707v3.13281H84.57715V6.63477h1.13379v4.73535l5.14941-4.73535H92.373l-3.94336,3.60156Z"/>
      <path d="M101.19336,18.84277V15.88965H93.50488V6.63477h1.13379v8.30078H99.915V6.63477h1.13379v8.30078h1.27832v3.90723h-1.13379Z"/>
      <path d="M109.97656,15.88965V7.9668l-5.00488,7.92285h-1.4043V6.63477h1.13379v7.92285L109.707,6.63477h1.4043v9.25488h-1.13477Z"/>
      <path d="M119.26465,15.88965V12H116.96l-3.25977,3.88965h-1.47559l3.43848-3.9248a2.62658,2.62658,0,0,1-2.75488-2.665,2.56453,2.56453,0,0,1,2.80859-2.665h4.68164v9.25488h-1.13379ZM115.9873,7.58887A1.69358,1.69358,0,0,0,114.043,9.31738a1.68434,1.68434,0,0,0,1.94434,1.72852h3.27734v-3.457H115.9873Z"/>
      <path d="M134.02441,15.88965V7.58887h-3.78125l-0.16211,4.64551c-0.08984,2.75488-.918,3.85352-2.41211,3.85352a2.836,2.836,0,0,1-.99023-0.19824v-0.918a2.755,2.755,0,0,0,1.00781.16211c0.75684,0,1.207-.8291,1.27832-2.95312l0.18066-5.5459h6.01367v9.25488h-1.13477Z"/>
      <path d="M149.23535,11.29785c0,2.98926-1.67383,4.8623-4.35645,4.8623-2.61133,0-4.30371-1.80078-4.41211-4.62793h-2.08789v4.35742h-1.13477V6.63477h1.13477v3.94336h2.124a4.26116,4.26116,0,0,1,4.376-4.21289C147.543,6.36523,149.23535,8.27344,149.23535,11.29785Zm-7.61621-.03516c0,2.43066,1.24316,3.96094,3.27734,3.96094,1.96289,0,3.20508-1.53027,3.20508-3.94336s-1.26074-3.96094-3.24121-3.96094C142.89746,7.31934,141.61914,8.86719,141.61914,11.2627Z"/>
      <path d="M154.93945,16.16016c-3.40332,0-4.30273-2.7373-4.30273-5.59961a10.59431,10.59431,0,0,1,1.15234-5.36621,4.2322,4.2322,0,0,1,3.72656-1.89062L156.37988,3.25c0.9541-.05371,1.18848-0.17969,1.333-0.48633h1.25977c-0.19824,1.09863-.90039,1.38672-2.50293,1.49414l-1.36816.09082c-2.08887.14355-3.15039,1.47559-3.54687,4.32129h0.05371a3.81332,3.81332,0,0,1,3.43945-2.08887c2.48438,0,4.19531,1.81836,4.19531,4.75293C159.24316,14.2334,157.51465,16.16016,154.93945,16.16016Zm0.05371-8.625c-1.9082,0-3.22266,1.47656-3.22266,3.79883,0,2.28711,1.333,3.87109,3.16895,3.87109,1.83691,0,3.16895-1.584,3.16895-3.87109C158.1084,9.084,156.77637,7.53516,154.99316,7.53516Z"/>
      <path d="M169.251,11.29785c0,2.98926-1.6748,4.8623-4.35742,4.8623-2.70117,0-4.41113-1.90918-4.41113-4.89746,0-2.97168,1.72852-4.89746,4.41113-4.89746C167.55859,6.36523,169.251,8.27344,169.251,11.29785Zm-7.61621-.03516c0,2.43066,1.24219,3.96094,3.27637,3.96094,1.96289,0,3.20508-1.53027,3.20508-3.94336s-1.25977-3.96094-3.24121-3.96094C162.91309,7.31934,161.63477,8.86719,161.63477,11.2627Z"/>
      <path d="M177.34961,15.88965V7.9668l-5.00488,7.92285h-1.4043V6.63477h1.13379v7.92285l5.00586-7.92285h1.4043v9.25488h-1.13477Zm-4.501-12.85547a1.66953,1.66953,0,0,0,1.85449,1.47559,1.77657,1.77657,0,0,0,1.9082-1.47559h0.70215A2.49928,2.49928,0,0,1,174.68555,5.375a2.36,2.36,0,0,1-2.53906-2.34082h0.70215Z"/>
      <path d="M189.48145,16.16016c-2.59277,0-4.28516-1.89062-4.28516-4.80762,0-3.02539,1.71-4.9873,4.32129-4.9873a3.4974,3.4974,0,0,1,3.79883,3.18652h-1.15234a2.50891,2.50891,0,0,0-2.62891-2.251c-1.94434,0-3.16895,1.54883-3.16895,3.96191,0,2.41211,1.18848,3.96094,3.06055,3.96094a2.75324,2.75324,0,0,0,2.82715-2.64746h1.13477A3.81763,3.81763,0,0,1,189.48145,16.16016Z"/>
      <path d="M200.96582,15.88965V7.58887h-3.78125l-0.16211,4.64551c-0.08984,2.75488-.918,3.85352-2.41211,3.85352a2.836,2.836,0,0,1-.99023-0.19824v-0.918a2.755,2.755,0,0,0,1.00781.16211c0.75684,0,1.207-.8291,1.27832-2.95312l0.18066-5.5459h6.01367v9.25488h-1.13477Z"/>
      <path d="M212.50488,11.29785c0,2.98926-1.6748,4.8623-4.35742,4.8623-2.70117,0-4.41113-1.90918-4.41113-4.89746,0-2.97168,1.72852-4.89746,4.41113-4.89746C210.8125,6.36523,212.50488,8.27344,212.50488,11.29785Zm-7.61621-.03516c0,2.43066,1.24219,3.96094,3.27637,3.96094,1.96289,0,3.20508-1.53027,3.20508-3.94336s-1.25977-3.96094-3.24121-3.96094C206.167,7.31934,204.88867,8.86719,204.88867,11.2627Z"/>
      <path d="M214.10449,15.88965h-1.38672l4.01563-5.40137-3.61914-3.85352h1.53027l4.26758,4.71777V6.63477h1.13379V11.334l4.26758-4.69922h1.53027l-3.61914,3.85352,4.01563,5.40137h-1.38672l-3.4209-4.64551-1.38672,1.44043v3.20508h-1.13379V12.68457l-1.38672-1.44043Z"/>
      <path d="M233.61816,15.88965V11.53223h-5.27539v4.35742H227.208V6.63477h1.13477v3.94336h5.27539V6.63477H234.752v9.25488h-1.13379Z"/>
      <path d="M245.19238,11.29785c0,2.98926-1.6748,4.8623-4.35742,4.8623-2.70117,0-4.41113-1.90918-4.41113-4.89746,0-2.97168,1.72852-4.89746,4.41113-4.89746C243.5,6.36523,245.19238,8.27344,245.19238,11.29785Zm-7.61621-.03516c0,2.43066,1.24219,3.96094,3.27637,3.96094,1.96289,0,3.20508-1.53027,3.20508-3.94336s-1.25977-3.96094-3.24121-3.96094C238.85449,7.31934,237.57617,8.86719,237.57617,11.2627Z"/>
      <path d="M250.75293,16.16016c-2.59277,0-4.28516-1.89062-4.28516-4.80762,0-3.02539,1.71094-4.9873,4.32129-4.9873a3.4974,3.4974,0,0,1,3.79883,3.18652h-1.15234a2.50891,2.50891,0,0,0-2.62891-2.251c-1.94434,0-3.16895,1.54883-3.16895,3.96191,0,2.41211,1.18848,3.96094,3.06152,3.96094a2.75384,2.75384,0,0,0,2.82715-2.64746h1.13379A3.817,3.817,0,0,1,250.75293,16.16016Z"/>
      <path d="M259.73438,7.58887v8.30078h-1.13379V7.58887h-3.43945V6.63477h8.0127v0.9541h-3.43945Z"/>
      <path d="M270.625,15.88965V7.9668l-5.00488,7.92285h-1.4043V6.63477h1.13379v7.92285l5.00586-7.92285h1.4043v9.25488H270.625Z"/>
    </g>
    <g>
      <path d="M22.209,50.35449c-3.18652,0-5.11328-1.65723-5.11328-4.39355v-0.1084h1.16992c0,2.377,1.585,3.51172,4.0332,3.51172,2.16113,0,3.47559-1.38672,3.47559-3.02539a2.63234,2.63234,0,0,0-2.917-2.48437H20.80469V42.80957h2.05273a2.3034,2.3034,0,0,0,2.57422-2.25c0-1.7832-1.36719-2.5752-3.11426-2.5752-2.03418,0-3.51074.97266-3.61914,2.917H17.50977c0.126-2.64648,2.07031-3.94336,4.77148-3.94336,2.41211,0,4.375,1.08008,4.375,3.49316a2.94112,2.94112,0,0,1-1.89062,2.71875v0.05371A2.93687,2.93687,0,0,1,26.998,46.32129C26.998,47.90527,25.81055,50.35449,22.209,50.35449Z"/>
      <path d="M36.916,50.03027a2.56616,2.56616,0,0,1-.90039.14355c-1.09766,0-1.20605-.8457-1.20605-1.69238a3.87692,3.87692,0,0,1-3.49316,1.85449c-1.89062,0-3.02539-.97168-3.02539-2.59277,0-1.69238,1.15234-2.62891,3.43945-2.8623a6.99927,6.99927,0,0,0,2.70117-.48633,0.94474,0.94474,0,0,0,.32422-0.88281c0-1.53027-.93652-1.998-2.41309-1.998a2.18067,2.18067,0,0,0-2.52051,2.17871H28.74219c0.08984-1.98047,1.43945-3.11523,3.72656-3.11523,2.08887,0,3.40234.918,3.40234,2.665v5.041c0,0.55859-.01758.93652,0.61328,0.93652A1.34887,1.34887,0,0,0,36.916,49.166v0.86426Zm-4.68164-4.33984c-1.16992.16211-2.75391,0.43262-2.75391,1.94531,0,1.08008.82813,1.76367,2.124,1.76367a2.91625,2.91625,0,0,0,3.15137-2.84473V45.042C34.39551,45.43848,33.47656,45.52832,32.23438,45.69043Z"/>
      <path d="M46.168,50.084H44.74609l-3.584-4.87988-1.89062,1.74707V50.084H38.1377V40.8291h1.13379v4.73535l5.15039-4.73535h1.51172l-3.94336,3.60156Z"/>
      <path d="M55.25781,50.03027a2.56616,2.56616,0,0,1-.90039.14355c-1.09766,0-1.20605-.8457-1.20605-1.69238a3.87692,3.87692,0,0,1-3.49316,1.85449c-1.89062,0-3.02539-.97168-3.02539-2.59277,0-1.69238,1.15234-2.62891,3.43945-2.8623a6.99927,6.99927,0,0,0,2.70117-.48633,0.94474,0.94474,0,0,0,.32422-0.88281c0-1.53027-.93652-1.998-2.41309-1.998a2.18067,2.18067,0,0,0-2.52051,2.17871H47.084c0.08984-1.98047,1.43945-3.11523,3.72656-3.11523,2.08887,0,3.40234.918,3.40234,2.665v5.041c0,0.55859-.01758.93652,0.61328,0.93652a1.34887,1.34887,0,0,0,.43164-0.05371v0.86426Zm-4.68164-4.33984c-1.16992.16211-2.75391,0.43262-2.75391,1.94531,0,1.08008.82813,1.76367,2.124,1.76367a2.91625,2.91625,0,0,0,3.15137-2.84473V45.042C52.7373,45.43848,51.81836,45.52832,50.57617,45.69043Z"/>
      <path d="M62.9082,50.084V41.7832H59.127l-0.16211,4.64551c-0.08984,2.75488-.918,3.85352-2.41309,3.85352a2.8406,2.8406,0,0,1-.99023-0.19824V49.166a2.75687,2.75687,0,0,0,1.00879.16211c0.75586,0,1.20605-.8291,1.27734-2.95312l0.18066-5.5459H64.042V50.084H62.9082Z"/>
      <path d="M69.89063,50.38965c-2.5752,0-4.25-1.89062-4.25-4.8252s1.74707-4.9873,4.23242-4.9873c2.73633,0,4.06836,2.26855,4.06836,4.8252v0.32422H66.793c0,1.94434.90039,3.74512,3.13281,3.74512A2.748,2.748,0,0,0,72.75391,47.041h1.09766A3.80926,3.80926,0,0,1,69.89063,50.38965Zm-0.05469-8.876c-2.01562,0-2.82617,1.56641-3.043,3.29492h6.01367C72.68164,42.75586,71.56445,41.51367,69.83594,41.51367Z"/>
      <path d="M81.87891,50.084V45.72656H76.60352V50.084H75.46875V40.8291h1.13477v3.94336h5.27539V40.8291h1.13477V50.084H81.87891Z"/>
      <path d="M91.54492,50.084V45.72656H86.26953V50.084H85.13477V40.8291h1.13477v3.94336h5.27539V40.8291h1.13477V50.084H91.54492Z"/>
      <path d="M103.11914,45.49219c0,2.98926-1.6748,4.8623-4.35742,4.8623-2.70117,0-4.41113-1.90918-4.41113-4.89746,0-2.97168,1.72852-4.89746,4.41113-4.89746C101.42676,40.55957,103.11914,42.46777,103.11914,45.49219ZM95.50293,45.457c0,2.43066,1.24219,3.96094,3.27637,3.96094,1.96289,0,3.20508-1.53027,3.20508-3.94336s-1.25977-3.96094-3.24023-3.96094C96.78125,41.51367,95.50293,43.06152,95.50293,45.457Z"/>
      <path d="M108.57227,50.38965c-2.5752,0-4.25-1.89062-4.25-4.8252s1.74707-4.9873,4.23242-4.9873c2.73633,0,4.06836,2.26855,4.06836,4.8252v0.32422h-7.14844c0,1.94434.90039,3.74512,3.13281,3.74512a2.748,2.748,0,0,0,2.82813-2.43066h1.09766A3.80926,3.80926,0,0,1,108.57227,50.38965Zm-0.05469-8.876c-2.01562,0-2.82617,1.56641-3.043,3.29492h6.01367C111.36328,42.75586,110.24609,41.51367,108.51758,41.51367Z"/>
      <path d="M123.02539,50.35449c-2.5918,0-4.28516-1.89062-4.28516-4.80762,0-3.02539,1.71094-4.9873,4.32129-4.9873a3.49774,3.49774,0,0,1,3.7998,3.18652H125.709a2.51014,2.51014,0,0,0-2.62891-2.251c-1.94531,0-3.16992,1.54883-3.16992,3.96191,0,2.41211,1.18945,3.96094,3.06152,3.96094a2.75384,2.75384,0,0,0,2.82715-2.64746h1.13477A3.81852,3.81852,0,0,1,123.02539,50.35449Z"/>
      <path d="M132.00781,41.7832V50.084H130.873V41.7832h-3.43848V40.8291h8.0127v0.9541h-3.43945Z"/>
      <path d="M139.92773,50.38965c-2.5752,0-4.25-1.89062-4.25-4.8252s1.74707-4.9873,4.23242-4.9873c2.73633,0,4.06836,2.26855,4.06836,4.8252v0.32422h-7.14844c0,1.94434.90039,3.74512,3.13281,3.74512A2.748,2.748,0,0,0,142.791,47.041h1.09766A3.80926,3.80926,0,0,1,139.92773,50.38965Zm-0.05469-8.876c-2.01562,0-2.82617,1.56641-3.043,3.29492h6.01367C142.71875,42.75586,141.60156,41.51367,139.873,41.51367Z"/>
      <path d="M153.55469,50.084h-1.42187l-3.583-4.87988-1.89062,1.74707V50.084h-1.13477V40.8291h1.13477v4.73535l5.14941-4.73535h1.51172l-3.94238,3.60156Z"/>
      <path d="M160.95313,50.084V41.7832h-3.78125l-0.16211,4.64551c-0.08984,2.75488-.918,3.85352-2.41309,3.85352a2.8406,2.8406,0,0,1-.99023-0.19824V49.166a2.75687,2.75687,0,0,0,1.00879.16211c0.75586,0,1.20605-.8291,1.27734-2.95312l0.18066-5.5459h6.01367V50.084h-1.13379Z"/>
      <path d="M172.49023,45.49219c0,2.98926-1.67383,4.8623-4.35742,4.8623-2.7002,0-4.41016-1.90918-4.41016-4.89746,0-2.97168,1.72852-4.89746,4.41016-4.89746C170.79883,40.55957,172.49023,42.46777,172.49023,45.49219ZM164.875,45.457c0,2.43066,1.24219,3.96094,3.27637,3.96094,1.96191,0,3.20508-1.53027,3.20508-3.94336s-1.26074-3.96094-3.24121-3.96094C166.15234,41.51367,164.875,43.06152,164.875,45.457Z"/>
      <path d="M182.69531,41.7832V50.084h-1.13477V41.7832h-3.43848V40.8291h8.0127v0.9541h-3.43945Z"/>
      <path d="M195.1709,45.49219c0,2.98926-1.6748,4.8623-4.35742,4.8623-2.7002,0-4.41113-1.90918-4.41113-4.89746,0-2.97168,1.72852-4.89746,4.41113-4.89746C193.47852,40.55957,195.1709,42.46777,195.1709,45.49219Zm-7.61621-.03516c0,2.43066,1.24219,3.96094,3.27734,3.96094,1.96191,0,3.20508-1.53027,3.20508-3.94336s-1.26074-3.96094-3.24219-3.96094C188.833,41.51367,187.55469,43.06152,187.55469,45.457Z"/>
      <path d="M202.875,50.084V41.7832h-3.78125l-0.16211,4.64551c-0.08984,2.75488-.918,3.85352-2.41309,3.85352a2.8406,2.8406,0,0,1-.99023-0.19824V49.166a2.75687,2.75687,0,0,0,1.00879.16211c0.75586,0,1.20605-.8291,1.27734-2.95312l0.18066-5.5459h6.01367V50.084H202.875Z"/>
      <path d="M206.04,40.8291h1.13379v8.30078h4.33984V40.8291h1.13477v8.30078h4.33887V40.8291h1.13379v8.30078h1.2793v3.90723h-1.13477V50.084H206.04V40.8291Z"/>
      <path d="M227.04785,50.084V42.16113L222.043,50.084h-1.4043V40.8291h1.13379V48.752l5.00488-7.92285h1.4043V50.084h-1.13379Z"/>
      <path d="M236.71387,50.084V45.72656h-5.27539V50.084h-1.13379V40.8291h1.13379v3.94336h5.27539V40.8291h1.13379V50.084h-1.13379Z"/>
      <path d="M248.28809,45.49219c0,2.98926-1.6748,4.8623-4.35742,4.8623-2.7002,0-4.41113-1.90918-4.41113-4.89746,0-2.97168,1.72852-4.89746,4.41113-4.89746C246.5957,40.55957,248.28809,42.46777,248.28809,45.49219Zm-7.61621-.03516c0,2.43066,1.24219,3.96094,3.27734,3.96094,1.96191,0,3.20508-1.53027,3.20508-3.94336s-1.26074-3.96094-3.24219-3.96094C241.9502,41.51367,240.67188,43.06152,240.67188,45.457Z"/>
      <path d="M256.3877,50.084V42.16113L251.38281,50.084h-1.4043V40.8291h1.13379V48.752l5.00488-7.92285h1.4043V50.084H256.3877Zm-4.501-12.85547a1.669,1.669,0,0,0,1.85449,1.47559,1.77657,1.77657,0,0,0,1.9082-1.47559h0.70215a2.49957,2.49957,0,0,1-2.62891,2.34082,2.36107,2.36107,0,0,1-2.53906-2.34082h0.70313Z"/>
      <path d="M264.77344,40.57715c0-1.94434,1.51172-3.22266,3.81641-3.22266s3.7998,1.25977,3.7998,3.15039a2.72393,2.72393,0,0,1-2.03418,2.77344,3.067,3.067,0,0,1,2.55664,3.15039c0,2.41309-1.65625,3.88965-4.33984,3.88965-2.62891,0-4.30273-1.47656-4.30273-3.78125a3.13165,3.13165,0,0,1,2.55664-3.25879A2.65729,2.65729,0,0,1,264.77344,40.57715Zm0.64844,5.92383c0,1.72852,1.24219,2.86328,3.168,2.86328a2.82608,2.82608,0,0,0,3.15137-2.86328c0-1.65625-1.24219-2.7373-3.18652-2.7373C266.66406,43.76367,265.42188,44.8623,265.42188,46.501Zm0.46777-5.87012c0,1.36914,1.0625,2.2334,2.7002,2.2334,1.65723,0,2.68359-.86426,2.68359-2.251,0-1.4043-1.00781-2.251-2.68359-2.251C266.93359,38.3623,265.88965,39.22656,265.88965,40.63086Z"/>
      <path d="M288.42773,50.084V42.46777H288.374L285.11523,50.084h-1.00781l-3.25977-7.61621h-0.05371V50.084h-1.13379V40.8291h1.51172l3.457,7.97656,3.4209-7.97656h1.5127V50.084h-1.13477Z"/>
      <path d="M300.43359,50.084V42.46777h-0.05371L297.12109,50.084h-1.00781l-3.25977-7.61621H292.7998V50.084H291.666V40.8291h1.51172l3.457,7.97656,3.4209-7.97656h1.5127V50.084h-1.13477Z"/>
    </g>
    <g>
      <path d="M17.65332,171.47949V158.66016h7.94043v1.04395h-6.7334v11.77539h-1.207Z"/>
      <path d="M28.07715,171.78516c-2.5752,0-4.25-1.89062-4.25-4.8252s1.74707-4.9873,4.23145-4.9873c2.7373,0,4.06934,2.26855,4.06934,4.8252v0.32422H24.97949c0,1.94434.90039,3.74512,3.13281,3.74512a2.74645,2.74645,0,0,0,2.82715-2.43066h1.09863A3.80926,3.80926,0,0,1,28.07715,171.78516Zm-0.05469-8.876c-2.0166,0-2.82617,1.56641-3.043,3.29492h6.01367C30.86719,164.15137,29.751,162.90918,28.02246,162.90918Z"/>
      <path d="M34.75391,164.00684a3.41512,3.41512,0,0,1,3.31348-2.05176c2.52051,0,4.17676,1.96191,4.17676,4.93262,0,2.93555-1.65625,4.87988-4.14062,4.87988a3.39,3.39,0,0,1-3.27734-1.999v5.168H33.72754V162.22461h1.02637v1.78223ZM34.79,166.87012c0,2.43066,1.22461,3.94336,3.16895,3.94336,1.89063,0,3.13281-1.54883,3.13281-3.92578,0-2.43066-1.22363-3.99707-3.16895-3.99707C35.97852,162.89063,34.79,164.38574,34.79,166.87012Z"/>
      <path d="M52.75586,171.47949v-7.61621H52.70215l-3.25879,7.61621H48.43457l-3.25879-7.61621H45.12207v7.61621H43.9873v-9.25488H45.5l3.457,7.97656,3.4209-7.97656h1.5127v9.25488H52.75586Z"/>
      <path d="M59.75684,171.78516c-2.5752,0-4.25-1.89062-4.25-4.8252s1.74707-4.9873,4.23145-4.9873c2.7373,0,4.06934,2.26855,4.06934,4.8252v0.32422H56.65918c0,1.94434.90039,3.74512,3.13281,3.74512a2.74645,2.74645,0,0,0,2.82715-2.43066h1.09863A3.80926,3.80926,0,0,1,59.75684,171.78516Zm-0.05469-8.876c-2.0166,0-2.82617,1.56641-3.043,3.29492h6.01367C62.54688,164.15137,61.43066,162.90918,59.70215,162.90918Z"/>
      <path d="M68.52246,163.17871v8.30078H67.3877v-8.30078H63.94922v-0.9541h8.01172v0.9541H68.52246Z"/>
      <path d="M79.41309,171.47949v-7.92285l-5.00586,7.92285h-1.4043v-9.25488H74.1377v7.92285l5.00488-7.92285h1.4043v9.25488H79.41309Z"/>
      <path d="M85.92773,161.95508c1.90918,0,3.43945.68359,3.43945,2.502a2.08668,2.08668,0,0,1-1.49414,2.05273v0.03613a2.05821,2.05821,0,0,1,1.7998,2.17871c0,2.0166-1.76465,3.02539-3.72656,3.02539-2.43066,0-3.709-1.24316-3.835-3.16895h1.13379c0.17969,1.332.90039,2.21387,2.71875,2.21387,2.05273,0,2.52051-1.08008,2.52051-2.03418,0-.93652-0.55762-1.6748-1.98047-1.6748H84.95605v-0.86426h1.27832a1.743,1.743,0,0,0,1.96191-1.69238c0-.68359-0.3418-1.62012-2.28613-1.62012-1.69238,0-2.39453.8457-2.50293,1.998H82.291C82.4707,162.63867,84.0918,161.95508,85.92773,161.95508Z"/>
      <path d="M99.53711,171.42578a2.56616,2.56616,0,0,1-.90039.14355c-1.09863,0-1.20605-.8457-1.20605-1.69238a3.87692,3.87692,0,0,1-3.49316,1.85449c-1.89062,0-3.02539-.97168-3.02539-2.59277,0-1.69238,1.15234-2.62891,3.43945-2.8623a6.99285,6.99285,0,0,0,2.7002-.48633,0.94474,0.94474,0,0,0,.32422-0.88281c0-1.53027-.93555-1.998-2.41211-1.998a2.18192,2.18192,0,0,0-2.52148,2.17871H91.3623c0.08984-1.98047,1.44043-3.11523,3.72754-3.11523,2.08887,0,3.40234.918,3.40234,2.665v5.041c0,0.55859-.01758.93652,0.6123,0.93652a1.35146,1.35146,0,0,0,.43262-0.05371v0.86426Zm-4.68164-4.33984c-1.16992.16211-2.75488,0.43262-2.75488,1.94531,0,1.08008.82813,1.76367,2.125,1.76367A2.9154,2.9154,0,0,0,97.376,167.9502v-1.5127C97.0166,166.834,96.09766,166.92383,94.85547,167.08594Z"/>
      <path d="M108.375,174.43262v-2.95312h-7.68848v-9.25488h1.13477v8.30078h5.27539v-8.30078h1.13477v8.30078h1.27832v3.90723H108.375Z"/>
      <path d="M117.1582,171.47949v-7.92285l-5.00488,7.92285H110.749v-9.25488h1.13379v7.92285l5.00586-7.92285h1.4043v9.25488H117.1582Z"/>
      <path d="M126.44629,171.47949v-3.88965H124.1416l-3.25977,3.88965h-1.47559l3.43848-3.9248a2.62658,2.62658,0,0,1-2.75488-2.665,2.56453,2.56453,0,0,1,2.80859-2.665h4.68164v9.25488h-1.13379Zm-3.27734-8.30078a1.74049,1.74049,0,1,0,0,3.457h3.27734v-3.457h-3.27734Z"/>
      <path d="M138.63184,171.75c-2.59277,0-4.28516-1.89062-4.28516-4.80762,0-3.02539,1.71-4.9873,4.32129-4.9873a3.4974,3.4974,0,0,1,3.79883,3.18652h-1.15234a2.50891,2.50891,0,0,0-2.62891-2.251c-1.94434,0-3.16895,1.54883-3.16895,3.96191,0,2.41211,1.18848,3.96094,3.06055,3.96094a2.75324,2.75324,0,0,0,2.82715-2.64746h1.13477A3.81763,3.81763,0,0,1,138.63184,171.75Z"/>
      <path d="M147.61328,163.17871v8.30078h-1.13477v-8.30078H143.04v-0.9541h8.01172v0.9541h-3.43848Z"/>
      <path d="M153.19238,162.22461v3.63672h3.00684a2.81177,2.81177,0,1,1,0,5.61816h-4.1416v-9.25488h1.13477Zm2.73633,4.5918h-2.73633v3.709h2.73633A1.86584,1.86584,0,1,0,155.92871,166.81641Zm6.08594-4.5918v9.25488h-1.13379v-9.25488h1.13379Z"/>
      <path d="M172.14844,171.47949h-1.42285l-3.583-4.87988-1.89062,1.74707v3.13281h-1.13379v-9.25488H165.252V166.96l5.14941-4.73535h1.5127l-3.94336,3.60156Z"/>
      <path d="M181.418,166.8877c0,2.98926-1.67383,4.8623-4.35742,4.8623-2.7002,0-4.41113-1.90918-4.41113-4.89746,0-2.97168,1.72852-4.89746,4.41113-4.89746C179.72559,161.95508,181.418,163.86328,181.418,166.8877Zm-7.61621-.03516c0,2.43066,1.24219,3.96094,3.27734,3.96094,1.96191,0,3.20508-1.53027,3.20508-3.94336s-1.26074-3.96094-3.24121-3.96094C175.08008,162.90918,173.80176,164.457,173.80176,166.85254Z"/>
      <path d="M187.44727,171.47949H183.1084v-9.25488h4.33887c1.89063,0,2.9707.77441,2.9707,2.19727a2.06752,2.06752,0,0,1-1.60254,2.124V166.582a2.15492,2.15492,0,0,1,1.96289,2.30469C190.77832,170.56152,189.58984,171.47949,187.44727,171.47949Zm-0.126-8.30078h-3.0791v3.02539h3.0791c1.27832,0,1.96289-.55859,1.96289-1.49512C189.28418,163.70117,188.63574,163.17871,187.32129,163.17871Zm0,3.90723h-3.0791v3.43945h3.0791c1.584,0,2.32227-.59473,2.32227-1.76465C189.64355,167.69824,188.87012,167.08594,187.32129,167.08594Z"/>
      <path d="M205.5918,171.42578a2.56259,2.56259,0,0,1-.90039.14355c-1.09766,0-1.20605-.8457-1.20605-1.69238a3.87584,3.87584,0,0,1-3.49316,1.85449c-1.89062,0-3.02441-.97168-3.02441-2.59277,0-1.69238,1.15234-2.62891,3.43848-2.8623a6.99927,6.99927,0,0,0,2.70117-.48633,0.94474,0.94474,0,0,0,.32422-0.88281c0-1.53027-.93652-1.998-2.41309-1.998a2.18067,2.18067,0,0,0-2.52051,2.17871H197.418c0.08984-1.98047,1.44043-3.11523,3.72656-3.11523,2.08887,0,3.40332.918,3.40332,2.665v5.041c0,0.55859-.01758.93652,0.6123,0.93652a1.3459,1.3459,0,0,0,.43164-0.05371v0.86426Zm-4.68066-4.33984c-1.1709.16211-2.75488,0.43262-2.75488,1.94531,0,1.08008.82813,1.76367,2.124,1.76367a2.91625,2.91625,0,0,0,3.15137-2.84473v-1.5127C203.07129,166.834,202.15332,166.92383,200.91113,167.08594Z"/>
      <path d="M214.84375,171.47949h-1.42187l-3.583-4.87988-1.89062,1.74707v3.13281h-1.13477v-9.25488h1.13477V166.96l5.14941-4.73535h1.51172l-3.94238,3.60156Z"/>
      <path d="M220.13477,171.47949H215.7959v-9.25488h4.33887c1.89063,0,2.9707.77441,2.9707,2.19727a2.06752,2.06752,0,0,1-1.60254,2.124V166.582a2.15492,2.15492,0,0,1,1.96289,2.30469C223.46582,170.56152,222.27734,171.47949,220.13477,171.47949Zm-0.126-8.30078h-3.0791v3.02539h3.0791c1.27832,0,1.96289-.55859,1.96289-1.49512C221.97168,163.70117,221.32324,163.17871,220.00879,163.17871Zm0,3.90723h-3.0791v3.43945h3.0791c1.584,0,2.32227-.59473,2.32227-1.76465C222.33105,167.69824,221.55762,167.08594,220.00879,167.08594Z"/>
      <path d="M233.27637,171.42578a2.56616,2.56616,0,0,1-.90039.14355c-1.09863,0-1.20605-.8457-1.20605-1.69238a3.87692,3.87692,0,0,1-3.49316,1.85449c-1.89062,0-3.02539-.97168-3.02539-2.59277,0-1.69238,1.15234-2.62891,3.43945-2.8623a6.99285,6.99285,0,0,0,2.7002-.48633,0.94474,0.94474,0,0,0,.32422-0.88281c0-1.53027-.93555-1.998-2.41211-1.998a2.18192,2.18192,0,0,0-2.52148,2.17871h-1.08008c0.08984-1.98047,1.44043-3.11523,3.72754-3.11523,2.08887,0,3.40234.918,3.40234,2.665v5.041c0,0.55859-.01758.93652,0.6123,0.93652a1.35146,1.35146,0,0,0,.43262-0.05371v0.86426Zm-4.68164-4.33984c-1.16992.16211-2.75488,0.43262-2.75488,1.94531,0,1.08008.82813,1.76367,2.125,1.76367a2.9154,2.9154,0,0,0,3.15039-2.84473v-1.5127C230.75586,166.834,229.83691,166.92383,228.59473,167.08594Z"/>
      <path d="M235.57813,164.00684a3.41468,3.41468,0,0,1,3.3125-2.05176c2.52148,0,4.17773,1.96191,4.17773,4.93262,0,2.93555-1.65625,4.87988-4.1416,4.87988a3.38953,3.38953,0,0,1-3.27637-1.999v5.168h-1.09863V162.22461h1.02637v1.78223Zm0.03613,2.86328c0,2.43066,1.22363,3.94336,3.16895,3.94336,1.89063,0,3.13281-1.54883,3.13281-3.92578,0-2.43066-1.22461-3.99707-3.16895-3.99707S235.61426,164.38574,235.61426,166.87012Z"/>
      <path d="M251.22168,171.47949v-7.92285l-5.00586,7.92285h-1.4043v-9.25488h1.13477v7.92285l5.00488-7.92285h1.4043v9.25488h-1.13379Z"/>
      <path d="M258.06055,171.82129c-0.81055,2.16113-1.24316,3.16895-2.7373,3.16895a5.99286,5.99286,0,0,1-.99023-0.08984v-0.99023a2.75182,2.75182,0,0,0,.81055.126c1.09766,0,1.4043-1.09863,1.98047-2.62891l-3.72754-9.18262h1.24316l2.502,6.374c0.32422,0.84668.19824,0.54,0.55859,1.63867,0.28809-.93652.39648-1.333,0.55762-1.76465l2.28711-6.248h1.15234Z"/>
      <path d="M271.58008,171.47949v-7.61621h-0.05469l-3.25879,7.61621h-1.00781l-3.25977-7.61621h-0.05371v7.61621h-1.13379v-9.25488h1.51172l3.457,7.97656,3.4209-7.97656h1.5127v9.25488h-1.13379Z"/>
      <path d="M281.22656,171.47949v-4.35742h-5.27539v4.35742h-1.13379v-9.25488h1.13379V166.168h5.27539v-3.94336h1.13477v9.25488h-1.13477Z"/>
      <path d="M285.58105,162.22461v3.63672h3.00684a2.81181,2.81181,0,1,1,0,5.61816h-4.14062v-9.25488h1.13379Zm2.7373,4.5918h-2.7373v3.709h2.7373A1.86574,1.86574,0,1,0,288.31836,166.81641Zm6.08594-4.5918v9.25488h-1.13477v-9.25488h1.13477Z"/>
      <path d="M305.25781,171.47949v-7.61621h-0.05469l-3.25879,7.61621h-1.00781l-3.25977-7.61621H297.623v7.61621h-1.13379v-9.25488H298.001l3.457,7.97656,3.4209-7.97656h1.5127v9.25488h-1.13379Z"/>
      <path d="M21.30859,192.75c-2.59277,0-4.28516-1.89062-4.28516-4.80762,0-3.02539,1.71094-4.9873,4.32129-4.9873a3.4974,3.4974,0,0,1,3.79883,3.18652H23.99121a2.50891,2.50891,0,0,0-2.62891-2.251c-1.94434,0-3.16895,1.54883-3.16895,3.96191,0,2.41211,1.18848,3.96094,3.06152,3.96094A2.75384,2.75384,0,0,0,24.082,189.166h1.13379A3.817,3.817,0,0,1,21.30859,192.75Z"/>
      <path d="M33.18945,192.47949v-7.92285l-5.00586,7.92285H26.7793v-9.25488h1.13477v7.92285l5.00488-7.92285h1.4043v9.25488H33.18945Z"/>
      <path d="M42.8916,192.47949v-8.30078H39.11035l-0.16211,4.64551c-0.08984,2.75488-.918,3.85352-2.41309,3.85352a2.8452,2.8452,0,0,1-.99023-0.19824v-0.918a2.75687,2.75687,0,0,0,1.00879.16211c0.75586,0,1.20605-.8291,1.27832-2.95312l0.17969-5.5459h6.01367v9.25488H42.8916Z"/>
      <path d="M52.52051,192.47949v-7.92285l-5.00488,7.92285h-1.4043v-9.25488h1.13379v7.92285l5.00586-7.92285h1.4043v9.25488H52.52051Z"/>
      <path d="M63.8252,192.47949H62.40332l-3.583-4.87988-1.89062,1.74707v3.13281H55.79492v-9.25488h1.13477V187.96l5.14941-4.73535h1.51172l-3.94238,3.60156Z"/>
      <path d="M73.0957,187.8877c0,2.98926-1.6748,4.8623-4.35742,4.8623-2.70117,0-4.41113-1.90918-4.41113-4.89746,0-2.97168,1.72852-4.89746,4.41113-4.89746C71.40332,182.95508,73.0957,184.86328,73.0957,187.8877Zm-7.61621-.03516c0,2.43066,1.24219,3.96094,3.27637,3.96094,1.96289,0,3.20508-1.53027,3.20508-3.94336s-1.25977-3.96094-3.24121-3.96094C66.75781,183.90918,65.47949,185.457,65.47949,187.85254Z"/>
      <path d="M81.19434,192.47949v-4.35742H75.91895v4.35742H74.78516v-9.25488h1.13379V187.168h5.27539v-3.94336H82.3291v9.25488H81.19434Z"/>
      <path d="M92.76953,187.8877c0,2.98926-1.6748,4.8623-4.35742,4.8623-2.70117,0-4.41113-1.90918-4.41113-4.89746,0-2.97168,1.72852-4.89746,4.41113-4.89746C91.07715,182.95508,92.76953,184.86328,92.76953,187.8877Zm-7.61621-.03516c0,2.43066,1.24219,3.96094,3.27637,3.96094,1.96289,0,3.20508-1.53027,3.20508-3.94336s-1.25977-3.96094-3.24121-3.96094C86.43164,183.90918,85.15332,185.457,85.15332,187.85254Z"/>
      <path d="M103.22754,192.47949v-7.61621h-0.05469l-3.25879,7.61621H98.90625l-3.25977-7.61621H95.59277v7.61621H94.459v-9.25488H95.9707l3.457,7.97656,3.4209-7.97656h1.5127v9.25488h-1.13379Z"/>
      <path d="M113.86328,195.91895c-1.56641-2.7373-2.53906-4.98828-2.53906-8.15723a14.86269,14.86269,0,0,1,2.53906-8.21h0.90039a15.68132,15.68132,0,0,0,0,16.36719h-0.90039Z"/>
      <path d="M117.04883,184.17871v8.30078h-1.13477v-9.25488h6.13965v0.9541h-5.00488Z"/>
      <path d="M130.67676,192.42578a2.56259,2.56259,0,0,1-.90039.14355c-1.09766,0-1.20605-.8457-1.20605-1.69238a3.87584,3.87584,0,0,1-3.49316,1.85449c-1.89062,0-3.02441-.97168-3.02441-2.59277,0-1.69238,1.15234-2.62891,3.43848-2.8623a6.99927,6.99927,0,0,0,2.70117-.48633,0.94474,0.94474,0,0,0,.32422-0.88281c0-1.53027-.93652-1.998-2.41309-1.998a2.18067,2.18067,0,0,0-2.52051,2.17871h-1.08008c0.08984-1.98047,1.44043-3.11523,3.72656-3.11523,2.08887,0,3.40332.918,3.40332,2.665v5.041c0,0.55859-.01758.93652,0.6123,0.93652a1.3459,1.3459,0,0,0,.43164-0.05371v0.86426Zm-4.68066-4.33984c-1.1709.16211-2.75488,0.43262-2.75488,1.94531,0,1.08008.82813,1.76367,2.124,1.76367a2.91625,2.91625,0,0,0,3.15137-2.84473v-1.5127C128.15625,187.834,127.23828,187.92383,125.99609,188.08594Z"/>
      <path d="M132.97852,185.00684a3.41512,3.41512,0,0,1,3.31348-2.05176c2.52051,0,4.17676,1.96191,4.17676,4.93262,0,2.93555-1.65625,4.87988-4.14062,4.87988a3.39,3.39,0,0,1-3.27734-1.999v5.168h-1.09863V183.22461h1.02637v1.78223Zm0.03613,2.86328c0,2.43066,1.22461,3.94336,3.16895,3.94336,1.89063,0,3.13281-1.54883,3.13281-3.92578,0-2.43066-1.22363-3.99707-3.16895-3.99707C134.20313,183.89063,133.01465,185.38574,133.01465,187.87012Z"/>
      <path d="M150.35059,192.42578a2.56259,2.56259,0,0,1-.90039.14355c-1.09766,0-1.20605-.8457-1.20605-1.69238a3.87584,3.87584,0,0,1-3.49316,1.85449c-1.89062,0-3.02441-.97168-3.02441-2.59277,0-1.69238,1.15234-2.62891,3.43848-2.8623a6.99927,6.99927,0,0,0,2.70117-.48633,0.94474,0.94474,0,0,0,.32422-0.88281c0-1.53027-.93652-1.998-2.41309-1.998a2.18067,2.18067,0,0,0-2.52051,2.17871h-1.08008c0.08984-1.98047,1.44043-3.11523,3.72656-3.11523,2.08887,0,3.40332.918,3.40332,2.665v5.041c0,0.55859-.01758.93652,0.6123,0.93652a1.3459,1.3459,0,0,0,.43164-0.05371v0.86426Zm-4.68066-4.33984c-1.1709.16211-2.75488,0.43262-2.75488,1.94531,0,1.08008.82813,1.76367,2.124,1.76367a2.91625,2.91625,0,0,0,3.15137-2.84473v-1.5127C147.83008,187.834,146.91211,187.92383,145.66992,188.08594Z"/>
      <path d="M157.96387,192.47949v-4.35742h-5.27539v4.35742h-1.13379v-9.25488h1.13379V187.168h5.27539v-3.94336h1.13477v9.25488h-1.13477Z"/>
      <path d="M164.73145,184.17871v8.30078h-1.13477v-8.30078H160.1582v-0.9541h8.01172v0.9541h-3.43848Z"/>
      <path d="M175.62207,192.47949v-7.92285l-5.00586,7.92285h-1.4043v-9.25488h1.13477v7.92285l5.00488-7.92285h1.4043v9.25488h-1.13379Z"/>
      <path d="M184.90918,192.47949v-3.88965h-2.30469l-3.25879,3.88965h-1.47656l3.43945-3.9248a2.62658,2.62658,0,0,1-2.75488-2.665,2.564,2.564,0,0,1,2.80859-2.665h4.68164v9.25488h-1.13477Zm-3.27637-8.30078a1.7406,1.7406,0,1,0,0,3.457h3.27637v-3.457h-3.27637Z"/>
      <path d="M201.542,187.8877c0,2.98926-1.67383,4.8623-4.35742,4.8623-2.7002,0-4.41113-1.90918-4.41113-4.89746,0-2.97168,1.72852-4.89746,4.41113-4.89746C199.84961,182.95508,201.542,184.86328,201.542,187.8877Zm-7.61621-.03516c0,2.43066,1.24219,3.96094,3.27734,3.96094,1.96191,0,3.20508-1.53027,3.20508-3.94336s-1.26074-3.96094-3.24121-3.96094C195.2041,183.90918,193.92578,185.457,193.92578,187.85254Z"/>
      <path d="M206.41895,184.17871v8.30078h-1.13477v-8.30078H201.8457v-0.9541h8.01172v0.9541h-3.43848Z"/>
      <path d="M222.31348,192.47949v-8.30078h-5.27539v8.30078h-1.13477v-9.25488h7.54395v9.25488h-1.13379Z"/>
      <path d="M226.667,185.00684a3.41512,3.41512,0,0,1,3.31348-2.05176c2.52051,0,4.17676,1.96191,4.17676,4.93262,0,2.93555-1.65625,4.87988-4.14062,4.87988a3.39,3.39,0,0,1-3.27734-1.999v5.168h-1.09863V183.22461H226.667v1.78223Zm0.03613,2.86328c0,2.43066,1.22461,3.94336,3.16895,3.94336,1.89063,0,3.13281-1.54883,3.13281-3.92578,0-2.43066-1.22363-3.99707-3.16895-3.99707C227.8916,183.89063,226.70313,185.38574,226.70313,187.87012Z"/>
      <path d="M244.21973,187.8877c0,2.98926-1.6748,4.8623-4.35742,4.8623-2.70117,0-4.41113-1.90918-4.41113-4.89746,0-2.97168,1.72852-4.89746,4.41113-4.89746C242.52734,182.95508,244.21973,184.86328,244.21973,187.8877Zm-7.61621-.03516c0,2.43066,1.24219,3.96094,3.27637,3.96094,1.96289,0,3.20508-1.53027,3.20508-3.94336s-1.25977-3.96094-3.24121-3.96094C237.88184,183.90918,236.60352,185.457,236.60352,187.85254Z"/>
      <path d="M249.0957,184.17871v8.30078h-1.13379v-8.30078h-3.43945v-0.9541h8.0127v0.9541H249.0957Z"/>
      <path d="M257.0166,192.78516c-2.5752,0-4.25-1.89062-4.25-4.8252s1.74707-4.9873,4.23145-4.9873c2.7373,0,4.06934,2.26855,4.06934,4.8252v0.32422h-7.14844c0,1.94434.90039,3.74512,3.13281,3.74512a2.74645,2.74645,0,0,0,2.82715-2.43066h1.09863A3.80926,3.80926,0,0,1,257.0166,192.78516Zm-0.05469-8.876c-2.0166,0-2.82617,1.56641-3.043,3.29492h6.01367C259.80664,185.15137,258.69043,183.90918,256.96191,183.90918Z"/>
      <path d="M270.64355,192.47949H269.2207l-3.583-4.87988-1.89062,1.74707v3.13281h-1.13379v-9.25488h1.13379V187.96l5.14941-4.73535h1.5127l-3.94336,3.60156Z"/>
      <path d="M279.7334,192.42578a2.56616,2.56616,0,0,1-.90039.14355c-1.09863,0-1.20605-.8457-1.20605-1.69238a3.87692,3.87692,0,0,1-3.49316,1.85449c-1.89062,0-3.02539-.97168-3.02539-2.59277,0-1.69238,1.15234-2.62891,3.43945-2.8623a6.99285,6.99285,0,0,0,2.7002-.48633,0.94474,0.94474,0,0,0,.32422-0.88281c0-1.53027-.93555-1.998-2.41211-1.998a2.18192,2.18192,0,0,0-2.52148,2.17871h-1.08008c0.08984-1.98047,1.44043-3.11523,3.72754-3.11523,2.08887,0,3.40234.918,3.40234,2.665v5.041c0,0.55859-.01758.93652,0.6123,0.93652a1.35146,1.35146,0,0,0,.43262-0.05371v0.86426Zm-4.68164-4.33984c-1.16992.16211-2.75488,0.43262-2.75488,1.94531,0,1.08008.82813,1.76367,2.125,1.76367a2.9154,2.9154,0,0,0,3.15039-2.84473v-1.5127C277.21289,187.834,276.29395,187.92383,275.05176,188.08594Z"/>
      <path d="M287.34668,192.47949v-4.35742h-5.27539v4.35742H280.9375v-9.25488h1.13379V187.168h5.27539v-3.94336h1.13477v9.25488h-1.13477Z"/>
      <path d="M297.0127,192.47949v-7.92285l-5.00586,7.92285h-1.4043v-9.25488h1.13477v7.92285l5.00488-7.92285h1.4043v9.25488H297.0127Z"/>
      <path d="M306.30078,192.47949v-3.88965h-2.30469l-3.25977,3.88965h-1.47559l3.43848-3.9248a2.62658,2.62658,0,0,1-2.75488-2.665,2.56453,2.56453,0,0,1,2.80859-2.665h4.68164v9.25488h-1.13379Zm-3.27734-8.30078a1.74049,1.74049,0,1,0,0,3.457h3.27734v-3.457h-3.27734Z"/>
      <path d="M322.59082,181.06445a18.36681,18.36681,0,0,0-5.11328,11.415h-1.22461a18.19649,18.19649,0,0,1,5.23926-11.37988H314.4707v-1.06152h8.12012v1.02637Z"/>
      <path d="M336.07227,192.47949v-8.30078H332.291l-0.16211,4.64551c-0.08984,2.75488-.918,3.85352-2.41211,3.85352a2.836,2.836,0,0,1-.99023-0.19824v-0.918a2.755,2.755,0,0,0,1.00781.16211c0.75684,0,1.207-.8291,1.27832-2.95312l0.18066-5.5459H337.207v9.25488h-1.13477Z"/>
      <path d="M343.05566,192.78516c-2.5752,0-4.25-1.89062-4.25-4.8252s1.74707-4.9873,4.23145-4.9873c2.7373,0,4.06934,2.26855,4.06934,4.8252v0.32422H339.958c0,1.94434.90039,3.74512,3.13281,3.74512a2.74645,2.74645,0,0,0,2.82715-2.43066h1.09863A3.80926,3.80926,0,0,1,343.05566,192.78516Zm-0.05469-8.876c-2.0166,0-2.82617,1.56641-3.043,3.29492h6.01367C345.8457,185.15137,344.72949,183.90918,343.001,183.90918Z"/>
      <path d="M351.82129,184.17871v8.30078h-1.13477v-8.30078H347.248v-0.9541h8.01172v0.9541h-3.43848Z"/>
      <path d="M356.1582,195.91895h-0.90039a15.68132,15.68132,0,0,0,0-16.36719h0.90039a14.87054,14.87054,0,0,1,2.53906,8.21C358.69727,190.93066,357.72461,193.18164,356.1582,195.91895Z"/>
    </g>
    <g>
      <path d="M27.75391,117.55664H26.5293V105.78125H18.87793v11.77539H17.65332V104.73633H27.75391v12.82031Z"/>
      <path d="M38.42773,112.96484c0,2.98828-1.67383,4.86133-4.35742,4.86133-2.70117,0-4.41113-1.9082-4.41113-4.89648,0-2.97266,1.72852-4.89844,4.41113-4.89844C36.73535,108.03125,38.42773,109.93945,38.42773,112.96484Zm-7.61621-.03516c0,2.42969,1.24219,3.96094,3.27637,3.96094,1.96289,0,3.20508-1.53125,3.20508-3.94336,0-2.41406-1.25977-3.96094-3.24023-3.96094C32.08984,108.98633,30.81152,110.5332,30.81152,112.92969Z"/>
      <path d="M41.21484,110.084a3.41539,3.41539,0,0,1,3.31348-2.05273c2.52051,0,4.17676,1.96289,4.17676,4.93359,0,2.93555-1.65625,4.87891-4.14062,4.87891a3.39244,3.39244,0,0,1-3.27734-1.998v5.168H40.18945V108.30078h1.02539v1.7832Zm0.03711,2.86328c0,2.42969,1.22363,3.94336,3.168,3.94336,1.89063,0,3.13281-1.54883,3.13281-3.92578,0-2.43164-1.22461-3.998-3.168-3.998C42.43945,108.9668,41.252,110.46289,41.252,112.94727Z"/>
      <path d="M58.76758,112.96484c0,2.98828-1.67383,4.86133-4.35742,4.86133-2.70117,0-4.41113-1.9082-4.41113-4.89648,0-2.97266,1.72852-4.89844,4.41113-4.89844C57.0752,108.03125,58.76758,109.93945,58.76758,112.96484Zm-7.61621-.03516c0,2.42969,1.24219,3.96094,3.27637,3.96094,1.96289,0,3.20508-1.53125,3.20508-3.94336,0-2.41406-1.25977-3.96094-3.24023-3.96094C52.42969,108.98633,51.15137,110.5332,51.15137,112.92969Z"/>
      <path d="M60.36719,117.55664H58.98047l4.01563-5.40234L59.377,108.30078h1.53027l4.26758,4.71875v-4.71875h1.13379V113l4.26758-4.69922h1.53125l-3.61914,3.85352,4.01465,5.40234H71.11621l-3.4209-4.64648-1.38672,1.44141v3.20508H65.1748v-3.20508l-1.38672-1.44141Z"/>
      <path d="M77.01758,117.86133c-2.57422,0-4.248-1.89062-4.248-4.82422,0-2.93555,1.74609-4.98828,4.23047-4.98828,2.7373,0,4.06934,2.26953,4.06934,4.82617v0.32422H73.92188c0,1.94336.90039,3.74414,3.13281,3.74414a2.74483,2.74483,0,0,0,2.82617-2.42969h1.09863A3.80747,3.80747,0,0,1,77.01758,117.86133Zm-0.05273-8.875c-2.01758,0-2.82812,1.56641-3.043,3.29492h6.01367C79.80859,110.22852,78.69336,108.98633,76.96484,108.98633Z"/>
      <path d="M90.64551,117.55664H89.22266l-3.582-4.88086-1.89062,1.748v3.13281H82.61523v-9.25586H83.75v4.73633l5.14844-4.73633h1.5127l-3.94238,3.60156Z"/>
      <path d="M103.01172,117.55664v-8.30078H97.73633v8.30078H96.60156v-9.25586h7.54395v9.25586h-1.13379Z"/>
      <path d="M114.58594,112.96484c0,2.98828-1.67578,4.86133-4.35742,4.86133-2.70117,0-4.41211-1.9082-4.41211-4.89648,0-2.97266,1.72852-4.89844,4.41211-4.89844C112.89258,108.03125,114.58594,109.93945,114.58594,112.96484Zm-7.61719-.03516c0,2.42969,1.24219,3.96094,3.27734,3.96094,1.96289,0,3.20508-1.53125,3.20508-3.94336,0-2.41406-1.25977-3.96094-3.24121-3.96094C108.248,108.98633,106.96875,110.5332,106.96875,112.92969Z"/>
      <path d="M123.58594,120.50977v-2.95312h-7.45508v2.95313h-1.13477v-3.9082h1.09961c0.89941-1.65625,1.27734-3.85352,1.27734-7.11133v-1.18945h6.05078v8.30078h1.2959v3.9082h-1.13379Zm-1.29687-11.25391h-3.81738v0.61133a15.66826,15.66826,0,0,1-1.20605,6.73438h5.02344v-7.3457Z"/>
      <path d="M138.59766,120.50977v-2.95312h-7.45508v2.95313h-1.13379v-3.9082h1.09863c0.90039-1.65625,1.27832-3.85352,1.27832-7.11133v-1.18945h6.0498v8.30078h1.29688v3.9082h-1.13477Zm-1.29687-11.25391h-3.81641v0.61133a15.65078,15.65078,0,0,1-1.207,6.73438h5.02344v-7.3457Z"/>
      <path d="M145.31055,117.55664H140.9707v-9.25586h4.33984c1.89063,0,2.9707.77539,2.9707,2.19727a2.06932,2.06932,0,0,1-1.60254,2.125v0.03516a2.15543,2.15543,0,0,1,1.96191,2.30469C148.64063,116.63867,147.45313,117.55664,145.31055,117.55664Zm-0.127-8.30078h-3.07812v3.02539h3.07813c1.2793,0,1.96289-.55859,1.96289-1.49609C147.14648,109.77734,146.498,109.25586,145.18359,109.25586Zm0,3.90625h-3.07812v3.43945h3.07813c1.585,0,2.32324-.59375,2.32324-1.76367C147.50684,113.77539,146.73242,113.16211,145.18359,113.16211Z"/>
      <path d="M154.07617,117.86133c-2.57422,0-4.249-1.89062-4.249-4.82422,0-2.93555,1.74707-4.98828,4.23145-4.98828,2.73633,0,4.06836,2.26953,4.06836,4.82617v0.32422h-7.14746c0,1.94336.90039,3.74414,3.13281,3.74414a2.74639,2.74639,0,0,0,2.82715-2.42969h1.09766A3.80716,3.80716,0,0,1,154.07617,117.86133Zm-0.05371-8.875c-2.0166,0-2.82715,1.56641-3.043,3.29492h6.01367C156.86719,110.22852,155.751,108.98633,154.02246,108.98633Z"/>
      <path d="M160.75391,110.084a3.41317,3.41317,0,0,1,3.3125-2.05273c2.52148,0,4.17773,1.96289,4.17773,4.93359,0,2.93555-1.65625,4.87891-4.1416,4.87891a3.38838,3.38838,0,0,1-3.27637-1.998v5.168h-1.09961V108.30078h1.02734v1.7832Zm0.03516,2.86328c0,2.42969,1.22461,3.94336,3.16992,3.94336,1.89063,0,3.13281-1.54883,3.13281-3.92578,0-2.43164-1.22461-3.998-3.16992-3.998C161.97852,108.9668,160.78906,110.46289,160.78906,112.94727Z"/>
      <path d="M171.12109,108.30078v3.63672h3.51074a2.81223,2.81223,0,1,1,0,5.61914h-4.64551v-9.25586h1.13477Zm3.24023,4.5918h-3.24023v3.709h3.24023A1.86584,1.86584,0,1,0,174.36133,112.89258Z"/>
      <path d="M190.97852,112.96484c0,2.98828-1.6748,4.86133-4.35742,4.86133-2.61133,0-4.30273-1.80078-4.41211-4.627h-2.08789v4.35742h-1.13477v-9.25586h1.13477v3.94336h2.125a4.261,4.261,0,0,1,4.375-4.21289C189.28516,108.03125,190.97852,109.93945,190.97852,112.96484Zm-7.61719-.03516c0,2.42969,1.24316,3.96094,3.27734,3.96094,1.96289,0,3.20508-1.53125,3.20508-3.94336,0-2.41406-1.25977-3.96094-3.24023-3.96094C184.64063,108.98633,183.36133,110.5332,183.36133,112.92969Z"/>
      <path d="M202.208,113.16211h-4.51855v-1.09766H202.208v1.09766Z"/>
      <path d="M216.96875,120.50977v-2.95312h-7.4541v2.95313h-1.13379v-3.9082h1.09766c0.90039-1.65625,1.2793-3.85352,1.2793-7.11133v-1.18945h6.04883v8.30078h1.29688v3.9082h-1.13477Zm-1.2959-11.25391h-3.81738v0.61133a15.63591,15.63591,0,0,1-1.207,6.73438h5.02441v-7.3457Z"/>
      <path d="M227.66113,112.96484c0,2.98828-1.6748,4.86133-4.35742,4.86133-2.7002,0-4.41113-1.9082-4.41113-4.89648,0-2.97266,1.72852-4.89844,4.41113-4.89844C225.96875,108.03125,227.66113,109.93945,227.66113,112.96484Zm-7.61621-.03516c0,2.42969,1.24219,3.96094,3.27734,3.96094,1.96191,0,3.20508-1.53125,3.20508-3.94336,0-2.41406-1.26172-3.96094-3.24219-3.96094C221.32324,108.98633,220.04492,110.5332,220.04492,112.92969Z"/>
      <path d="M235.76074,117.55664v-8.30078h-5.27539v8.30078h-1.13379v-9.25586h7.543v9.25586h-1.13379Z"/>
      <path d="M247.335,112.96484c0,2.98828-1.6748,4.86133-4.35742,4.86133-2.7002,0-4.41113-1.9082-4.41113-4.89648,0-2.97266,1.72852-4.89844,4.41113-4.89844C245.64258,108.03125,247.335,109.93945,247.335,112.96484Zm-7.61621-.03516c0,2.42969,1.24219,3.96094,3.27734,3.96094,1.96191,0,3.20508-1.53125,3.20508-3.94336,0-2.41406-1.26172-3.96094-3.24219-3.96094C240.99707,108.98633,239.71875,110.5332,239.71875,112.92969Z"/>
      <path d="M255.03906,117.55664v-8.30078h-3.78125l-0.16211,4.64453c-0.08984,2.75586-.918,3.85352-2.41309,3.85352a2.863,2.863,0,0,1-.99023-0.19727v-0.918a2.77754,2.77754,0,0,0,1.00879.16211c0.75586,0,1.20508-.83008,1.27734-2.95312l0.18066-5.54687h6.01367v9.25586h-1.13379Z"/>
      <path d="M264.668,117.55664v-4.35742h-5.27539v4.35742h-1.13379v-9.25586h1.13379v3.94336H264.668v-3.94336h1.13477v9.25586H264.668Z"/>
      <path d="M274.334,117.55664v-7.92383l-5.00586,7.92383h-1.4043v-9.25586h1.13477v7.92383l5.00586-7.92383h1.4043v9.25586H274.334Z"/>
      <path d="M281.10156,109.25586v8.30078H279.9668v-8.30078h-3.43945v-0.95508H284.54v0.95508h-3.43848Z"/>
      <path d="M289.02148,117.86133c-2.5752,0-4.25-1.89062-4.25-4.82422,0-2.93555,1.74707-4.98828,4.23242-4.98828,2.73633,0,4.06836,2.26953,4.06836,4.82617v0.32422h-7.14844c0,1.94336.90039,3.74414,3.13281,3.74414a2.748,2.748,0,0,0,2.82813-2.42969h1.09766A3.80846,3.80846,0,0,1,289.02148,117.86133Zm-0.05469-8.875c-2.01562,0-2.82617,1.56641-3.043,3.29492h6.01367C291.8125,110.22852,290.69531,108.98633,288.9668,108.98633Z"/>
      <path d="M300.61426,117.55664v-8.30078H296.833l-0.16211,4.64453c-0.08984,2.75586-.918,3.85352-2.41309,3.85352a2.86764,2.86764,0,0,1-.99023-0.19727v-0.918a2.77754,2.77754,0,0,0,1.00879.16211c0.75684,0,1.20605-.83008,1.27832-2.95312l0.17969-5.54687H301.748v9.25586h-1.13379Z"/>
      <path d="M304.96875,108.30078v3.63672h3.50977a2.81227,2.81227,0,1,1,0,5.61914H303.834v-9.25586h1.13477Zm3.24023,4.5918h-3.24023v3.709H308.209A1.86574,1.86574,0,1,0,308.209,112.89258Z"/>
      <path d="M319.24414,117.55664v-4.35742h-5.27539v4.35742H312.834v-9.25586h1.13477v3.94336h5.27539v-3.94336h1.13379v9.25586h-1.13379Z"/>
      <path d="M330.63867,117.502a2.567,2.567,0,0,1-.90039.14453c-1.09863,0-1.207-.8457-1.207-1.69336a3.873,3.873,0,0,1-3.49219,1.85547c-1.89062,0-3.02539-.97266-3.02539-2.59375,0-1.69141,1.15234-2.62891,3.43945-2.86133a7.01678,7.01678,0,0,0,2.7002-.48633,0.94474,0.94474,0,0,0,.32422-0.88281c0-1.53125-.93652-1.998-2.41309-1.998a2.18049,2.18049,0,0,0-2.52051,2.17773h-1.08008c0.08984-1.98047,1.44043-3.11523,3.72754-3.11523,2.08789,0,3.40234.918,3.40234,2.666v5.041c0,0.55859-.01758.93555,0.6123,0.93555a1.38122,1.38122,0,0,0,.43262-0.05273V117.502Zm-4.68164-4.33984c-1.16992.16211-2.75488,0.43359-2.75488,1.94531,0,1.08008.82813,1.76367,2.124,1.76367a2.91554,2.91554,0,0,0,3.15137-2.84375v-1.51367C328.11719,112.91016,327.19922,113,325.957,113.16211Z"/>
      <path d="M337.873,117.55664V113.666h-2.30469l-3.25879,3.89063H330.834l3.43848-3.92578a2.62581,2.62581,0,0,1-2.75488-2.66406,2.56427,2.56427,0,0,1,2.80859-2.666h4.68164v9.25586H337.873Zm-3.27734-8.30078a1.74039,1.74039,0,1,0,0,3.457H337.873v-3.457H334.5957Z"/>
      <path d="M20.69629,129.03125c1.90918,0,3.43848.68359,3.43848,2.502a2.08668,2.08668,0,0,1-1.49414,2.05273V133.623a2.05786,2.05786,0,0,1,1.80078,2.17773c0,2.01758-1.76465,3.02539-3.72656,3.02539-2.43164,0-3.709-1.24219-3.83594-3.168h1.13477c0.17969,1.332.90039,2.21289,2.71875,2.21289,2.05273,0,2.52051-1.08008,2.52051-2.0332,0-.9375-0.55762-1.67578-1.98047-1.67578H19.72461v-0.86328H21.002a1.744,1.744,0,0,0,1.96289-1.69336c0-.68359-0.3418-1.61914-2.28711-1.61914-1.69141,0-2.39453.8457-2.502,1.998H17.05859C17.23926,129.71484,18.85938,129.03125,20.69629,129.03125Z"/>
      <path d="M34.30566,138.502a2.56342,2.56342,0,0,1-.90039.14453c-1.09863,0-1.20605-.8457-1.20605-1.69336a3.87463,3.87463,0,0,1-3.49316,1.85547c-1.89062,0-3.02441-.97266-3.02441-2.59375,0-1.69141,1.15234-2.62891,3.43848-2.86133a7.01223,7.01223,0,0,0,2.7002-.48633,0.94474,0.94474,0,0,0,.32422-0.88281c0-1.53125-.93555-1.998-2.41211-1.998a2.18174,2.18174,0,0,0-2.52148,2.17773H26.13086c0.08984-1.98047,1.44141-3.11523,3.72754-3.11523,2.08887,0,3.40332.918,3.40332,2.666v5.041c0,0.55859-.01758.93555,0.61133,0.93555a1.37514,1.37514,0,0,0,.43262-0.05273V138.502ZM29.625,134.16211c-1.1709.16211-2.75586,0.43359-2.75586,1.94531,0,1.08008.82813,1.76367,2.125,1.76367a2.91524,2.91524,0,0,0,3.15039-2.84375v-1.51367C31.78516,133.91016,30.86719,134,29.625,134.16211Z"/>
      <path d="M35.45508,129.30078h1.13477v8.30078h4.33887v-8.30078H42.0625v8.30078h4.33984v-8.30078h1.13477v8.30078h1.27734v3.9082H47.68066v-2.95312H35.45508v-9.25586Z"/>
      <path d="M56.46289,138.55664v-7.92383L51.457,138.55664h-1.4043v-9.25586H51.1875v7.92383l5.00586-7.92383h1.4043v9.25586H56.46289Z"/>
      <path d="M63.22949,130.25586v8.30078H62.0957v-8.30078H58.65625v-0.95508H66.668v0.95508H63.22949Z"/>
      <path d="M75.52539,138.502a2.567,2.567,0,0,1-.90039.14453c-1.09863,0-1.207-.8457-1.207-1.69336a3.873,3.873,0,0,1-3.49219,1.85547c-1.89062,0-3.02539-.97266-3.02539-2.59375,0-1.69141,1.15234-2.62891,3.43945-2.86133a7.01678,7.01678,0,0,0,2.7002-.48633,0.94474,0.94474,0,0,0,.32422-0.88281c0-1.53125-.93652-1.998-2.41309-1.998a2.18049,2.18049,0,0,0-2.52051,2.17773H67.35059c0.08984-1.98047,1.44043-3.11523,3.72754-3.11523,2.08789,0,3.40234.918,3.40234,2.666v5.041c0,0.55859-.01758.93555,0.6123,0.93555a1.38122,1.38122,0,0,0,.43262-0.05273V138.502Zm-4.68164-4.33984c-1.16992.16211-2.75488,0.43359-2.75488,1.94531,0,1.08008.82813,1.76367,2.124,1.76367a2.91554,2.91554,0,0,0,3.15137-2.84375v-1.51367C73.00391,133.91016,72.08594,134,70.84375,134.16211Z"/>
      <path d="M90.05078,133.96484c0,2.98828-1.67383,4.86133-4.35742,4.86133-2.7002,0-4.41016-1.9082-4.41016-4.89648,0-2.97266,1.72852-4.89844,4.41016-4.89844C88.35938,129.03125,90.05078,130.93945,90.05078,133.96484Zm-7.61523-.03516c0,2.42969,1.24219,3.96094,3.27637,3.96094,1.96191,0,3.20508-1.53125,3.20508-3.94336,0-2.41406-1.26074-3.96094-3.24121-3.96094C83.71289,129.98633,82.43555,131.5332,82.43555,133.92969Z"/>
      <path d="M94.92773,130.25586v8.30078H93.793v-8.30078H90.35449v-0.95508h8.0127v0.95508H94.92773Z"/>
      <path d="M110.82227,138.55664v-8.30078h-5.27539v8.30078h-1.13477v-9.25586H111.957v9.25586h-1.13477Z"/>
      <path d="M115.17676,131.084a3.4145,3.4145,0,0,1,3.31348-2.05273c2.51953,0,4.17676,1.96289,4.17676,4.93359,0,2.93555-1.65723,4.87891-4.1416,4.87891a3.39244,3.39244,0,0,1-3.27734-1.998v5.168h-1.09766V129.30078h1.02637v1.7832Zm0.03613,2.86328c0,2.42969,1.22461,3.94336,3.16895,3.94336,1.89063,0,3.13281-1.54883,3.13281-3.92578,0-2.43164-1.22363-3.998-3.16895-3.998S115.21289,131.46289,115.21289,133.94727Z"/>
      <path d="M132.72852,133.96484c0,2.98828-1.67383,4.86133-4.35742,4.86133-2.70117,0-4.41113-1.9082-4.41113-4.89648,0-2.97266,1.72852-4.89844,4.41113-4.89844C131.03613,129.03125,132.72852,130.93945,132.72852,133.96484Zm-7.61621-.03516c0,2.42969,1.24219,3.96094,3.27637,3.96094,1.96289,0,3.20508-1.53125,3.20508-3.94336,0-2.41406-1.25977-3.96094-3.24023-3.96094C126.39063,129.98633,125.1123,131.5332,125.1123,133.92969Z"/>
      <path d="M137.60547,130.25586v8.30078H136.4707v-8.30078h-3.43945v-0.95508h8.0127v0.95508h-3.43848Z"/>
      <path d="M145.52539,138.86133c-2.5752,0-4.25-1.89062-4.25-4.82422,0-2.93555,1.74707-4.98828,4.23242-4.98828,2.73633,0,4.06836,2.26953,4.06836,4.82617v0.32422h-7.14844c0,1.94336.90039,3.74414,3.13281,3.74414a2.748,2.748,0,0,0,2.82813-2.42969h1.09766A3.80846,3.80846,0,0,1,145.52539,138.86133Zm-0.05469-8.875c-2.01562,0-2.82617,1.56641-3.043,3.29492h6.01367C148.31641,131.22852,147.19922,129.98633,145.4707,129.98633Z"/>
      <path d="M159.15234,138.55664h-1.42187l-3.584-4.88086-1.88965,1.748v3.13281H151.123v-9.25586h1.13379v4.73633l5.14941-4.73633H158.918l-3.94238,3.60156Z"/>
      <path d="M168.24219,138.502a2.56342,2.56342,0,0,1-.90039.14453c-1.09766,0-1.20508-.8457-1.20508-1.69336a3.87732,3.87732,0,0,1-3.49414,1.85547c-1.89062,0-3.02441-.97266-3.02441-2.59375,0-1.69141,1.15234-2.62891,3.43848-2.86133a7.01412,7.01412,0,0,0,2.70117-.48633,0.94474,0.94474,0,0,0,.32422-0.88281c0-1.53125-.93555-1.998-2.41211-1.998a2.18174,2.18174,0,0,0-2.52148,2.17773h-1.08008c0.08984-1.98047,1.44043-3.11523,3.72656-3.11523,2.08984,0,3.40332.918,3.40332,2.666v5.041c0,0.55859-.01855.93555,0.6123,0.93555a1.36645,1.36645,0,0,0,.43164-0.05273V138.502Zm-4.68066-4.33984c-1.1709.16211-2.75488,0.43359-2.75488,1.94531,0,1.08008.82813,1.76367,2.125,1.76367a2.91578,2.91578,0,0,0,3.15039-2.84375v-1.51367C165.72266,133.91016,164.80371,134,163.56152,134.16211Z"/>
      <path d="M175.85547,138.55664v-4.35742h-5.27539v4.35742h-1.13379v-9.25586h1.13379v3.94336h5.27539v-3.94336h1.13477v9.25586h-1.13477Z"/>
      <path d="M185.52148,138.55664v-7.92383l-5.00586,7.92383h-1.4043v-9.25586h1.13477v7.92383l5.00586-7.92383h1.4043v9.25586h-1.13477Z"/>
      <path d="M195.1875,138.55664v-7.92383l-5.00586,7.92383h-1.4043v-9.25586h1.13477v7.92383l5.00586-7.92383h1.4043v9.25586H195.1875Zm-4.502-12.85547a1.67035,1.67035,0,0,0,1.85547,1.47461,1.77647,1.77647,0,0,0,1.9082-1.47461h0.70215a2.49907,2.49907,0,0,1-2.62793,2.33984,2.35925,2.35925,0,0,1-2.53906-2.33984h0.70117Z"/>
    </g>
    <g>
      <path d="M23.73926,83.7373H17.67188V70.918h8.876v1.04395H18.89648v4.35742h4.84277A3.71052,3.71052,0,1,1,23.73926,83.7373Zm-0.27051-6.374H18.89648v5.33008h4.57227A2.6719,2.6719,0,1,0,23.46875,77.36328Z"/>
      <path d="M37.76172,79.14551c0,2.98926-1.67383,4.8623-4.35742,4.8623-2.70117,0-4.41113-1.90918-4.41113-4.89746,0-2.97168,1.72852-4.89746,4.41113-4.89746C36.06934,74.21289,37.76172,76.12109,37.76172,79.14551Zm-7.61621-.03516c0,2.43066,1.24219,3.96094,3.27637,3.96094,1.96289,0,3.20508-1.53027,3.20508-3.94336S35.36719,75.167,33.38672,75.167C31.42383,75.167,30.14551,76.71484,30.14551,79.11035Z"/>
      <path d="M45.46484,83.7373V75.43652H41.68359L41.52148,80.082c-0.08984,2.75488-.918,3.85352-2.41211,3.85352a2.8406,2.8406,0,0,1-.99023-0.19824v-0.918a2.755,2.755,0,0,0,1.00781.16211c0.75684,0,1.207-.8291,1.2793-2.95312l0.17969-5.5459h6.01367V83.7373H45.46484Z"/>
      <path d="M49.82031,74.48242v3.63672h3.50977a2.81181,2.81181,0,1,1,0,5.61816H48.68555V74.48242h1.13477Zm3.24023,4.5918H49.82031v3.709h3.24023A1.86574,1.86574,0,1,0,53.06055,79.07422Z"/>
      <path d="M57.68555,74.48242h1.13477V82.7832h4.33887V74.48242H64.293V82.7832h4.33984V74.48242h1.13477V83.7373h-12.082V74.48242Z"/>
      <path d="M80.20508,79.14551c0,2.98926-1.67383,4.8623-4.35742,4.8623-2.7002,0-4.41016-1.90918-4.41016-4.89746,0-2.97168,1.72852-4.89746,4.41016-4.89746C78.51367,74.21289,80.20508,76.12109,80.20508,79.14551Zm-7.61523-.03516c0,2.43066,1.24219,3.96094,3.27637,3.96094,1.96191,0,3.20508-1.53027,3.20508-3.94336S77.81055,75.167,75.83008,75.167C73.86719,75.167,72.58984,76.71484,72.58984,79.11035Z"/>
      <path d="M88.30469,83.7373V75.81445L83.29883,83.7373h-1.4043V74.48242H83.0293v7.92285l5.00586-7.92285h1.4043V83.7373H88.30469Zm-4.502-12.85547a1.671,1.671,0,0,0,1.85547,1.47559,1.77721,1.77721,0,0,0,1.9082-1.47559h0.70215a2.49987,2.49987,0,0,1-2.62793,2.34082,2.36,2.36,0,0,1-2.53906-2.34082h0.70117Z"/>
      <path d="M100.9043,83.7373H96.56445V74.48242h4.33984c1.89063,0,2.9707.77441,2.9707,2.19727a2.06752,2.06752,0,0,1-1.60254,2.124v0.03613a2.15484,2.15484,0,0,1,1.96191,2.30469C104.23438,82.81934,103.04688,83.7373,100.9043,83.7373Zm-0.127-8.30078H97.69922v3.02539h3.07813c1.2793,0,1.96289-.55859,1.96289-1.49512C102.74023,75.959,102.0918,75.43652,100.77734,75.43652Zm0,3.90723H97.69922V82.7832h3.07813c1.585,0,2.32324-.59473,2.32324-1.76465C103.10059,79.95605,102.32617,79.34375,100.77734,79.34375Z"/>
      <path d="M107.00488,74.48242v3.63672h3.00684a2.81181,2.81181,0,1,1,0,5.61816h-4.14062V74.48242h1.13379Zm2.7373,4.5918h-2.7373v3.709h2.7373A1.86574,1.86574,0,1,0,109.74219,79.07422Zm6.08594-4.5918V83.7373h-1.13477V74.48242h1.13477Z"/>
      <path d="M121.92773,84.00781c-3.40332,0-4.30273-2.7373-4.30273-5.59961a10.59431,10.59431,0,0,1,1.15234-5.36621,4.2322,4.2322,0,0,1,3.72656-1.89062l0.86426-.05371c0.9541-.05371,1.18848-0.17969,1.333-0.48633h1.25977c-0.19824,1.09863-.90039,1.38672-2.50293,1.49414l-1.36816.09082c-2.08887.14355-3.15039,1.47559-3.54687,4.32129h0.05371a3.81293,3.81293,0,0,1,3.43848-2.08887c2.48535,0,4.19531,1.81836,4.19531,4.75293C126.23047,82.08105,124.502,84.00781,121.92773,84.00781Zm0.05371-8.625c-1.9082,0-3.22266,1.47656-3.22266,3.79883,0,2.28711,1.333,3.87109,3.16895,3.87109s3.16895-1.584,3.16895-3.87109C125.09668,76.93164,123.76367,75.38281,121.98145,75.38281Z"/>
      <path d="M136.23926,79.14551c0,2.98926-1.6748,4.8623-4.35742,4.8623-2.7002,0-4.41113-1.90918-4.41113-4.89746,0-2.97168,1.72852-4.89746,4.41113-4.89746C134.54688,74.21289,136.23926,76.12109,136.23926,79.14551Zm-7.61621-.03516c0,2.43066,1.24219,3.96094,3.27734,3.96094,1.96191,0,3.20508-1.53027,3.20508-3.94336s-1.26172-3.96094-3.24219-3.96094C129.90137,75.167,128.623,76.71484,128.623,79.11035Z"/>
      <path d="M139.02734,76.26465a3.41379,3.41379,0,0,1,3.3125-2.05176c2.52148,0,4.17773,1.96191,4.17773,4.93262,0,2.93555-1.65625,4.87988-4.1416,4.87988a3.38772,3.38772,0,0,1-3.27637-1.999v5.168H138V74.48242h1.02734v1.78223Zm0.03516,2.86328c0,2.43066,1.22461,3.94336,3.16992,3.94336,1.89063,0,3.13281-1.54883,3.13281-3.92578,0-2.43066-1.22461-3.99707-3.16992-3.99707C140.252,75.14844,139.0625,76.64355,139.0625,79.12793Z"/>
      <path d="M154.36328,76.26465a3.41379,3.41379,0,0,1,3.3125-2.05176c2.52148,0,4.17773,1.96191,4.17773,4.93262,0,2.93555-1.65625,4.87988-4.1416,4.87988a3.38772,3.38772,0,0,1-3.27637-1.999v5.168h-1.09961V74.48242h1.02734v1.78223Zm0.03516,2.86328c0,2.43066,1.22461,3.94336,3.16992,3.94336,1.89063,0,3.13281-1.54883,3.13281-3.92578,0-2.43066-1.22461-3.99707-3.16992-3.99707C155.58789,75.14844,154.39844,76.64355,154.39844,79.12793Z"/>
      <path d="M166.96289,84.0791c-0.81055,2.16113-1.24219,3.16895-2.73633,3.16895a5.99286,5.99286,0,0,1-.99023-0.08984V86.168a2.74756,2.74756,0,0,0,.81055.126c1.09766,0,1.4043-1.09863,1.98047-2.62891l-3.72754-9.18262H163.543l2.502,6.374c0.32422,0.84668.19824,0.54,0.55859,1.63867,0.28711-.93652.39648-1.333,0.55762-1.76465l2.28613-6.248h1.15234Z"/>
      <path d="M174.34277,79.88379c-1.87207,0-2.93457-.82812-2.93457-2.98828V74.48242H172.543v2.53906c0,1.80078,1.13379,1.83594,2.03418,1.83594a9.26531,9.26531,0,0,0,2.93457-.55762V74.48242h1.13477V83.7373h-1.13477V79.32617A10.55122,10.55122,0,0,1,174.34277,79.88379Z"/>
      <path d="M184.47656,84.043c-2.57422,0-4.248-1.89062-4.248-4.8252s1.74609-4.9873,4.23047-4.9873c2.7373,0,4.06934,2.26855,4.06934,4.8252v0.32422h-7.14746c0,1.94434.90039,3.74512,3.13281,3.74512a2.74489,2.74489,0,0,0,2.82617-2.43066h1.09863A3.80826,3.80826,0,0,1,184.47656,84.043Zm-0.05273-8.876c-2.01758,0-2.82812,1.56641-3.043,3.29492h6.01367C187.26758,76.40918,186.15234,75.167,184.42383,75.167Z"/>
      <path d="M198.10449,83.7373h-1.42285l-3.582-4.87988L191.209,80.60449V83.7373h-1.13477V74.48242H191.209v4.73535l5.14844-4.73535h1.5127L193.92773,78.084Z"/>
    </g>
    <g>
      <path d="M30.11328,279.75H28.94336v-7.74219c0-1.35059.05371-2.68262,0.14355-4.0332-0.252.77441-.54,1.56641-0.8457,2.32227L24.46,279.75H23.36133l-3.835-9.34473c-0.32422-.77441-0.59473-1.56641-0.84668-2.3584,0.08984,1.31445.14453,2.61035,0.14453,3.9248V279.75h-1.1709V266.93066h1.65723l3.72656,9.14648c0.32422,0.792.59473,1.60254,0.88281,2.41211,0.28809-.792.54-1.60254,0.8457-2.376l3.67285-9.18262h1.6748V279.75Z"/>
      <path d="M40.56934,279.69629a2.56259,2.56259,0,0,1-.90039.14355c-1.09766,0-1.20605-.8457-1.20605-1.69238a3.87584,3.87584,0,0,1-3.49316,1.85449c-1.89062,0-3.02441-.97168-3.02441-2.59277,0-1.69238,1.15234-2.62891,3.43848-2.8623a6.99927,6.99927,0,0,0,2.70117-.48633,0.94474,0.94474,0,0,0,.32422-0.88281c0-1.53027-.93652-1.998-2.41309-1.998a2.18067,2.18067,0,0,0-2.52051,2.17871H32.39551c0.08984-1.98047,1.44043-3.11523,3.72656-3.11523,2.08887,0,3.40332.918,3.40332,2.665v5.041c0,0.55859-.01758.93652,0.6123,0.93652a1.3459,1.3459,0,0,0,.43164-0.05371v0.86426Zm-4.68066-4.33984c-1.1709.16211-2.75488,0.43262-2.75488,1.94531,0,1.08008.82813,1.76367,2.124,1.76367a2.91625,2.91625,0,0,0,3.15137-2.84473V274.708C38.04883,275.10449,37.13086,275.19434,35.88867,275.35645Z"/>
      <path d="M43.01563,271.44922V279.75H41.88184v-9.25488h6.13965v0.9541H43.01563Z"/>
      <path d="M55.38281,279.75v-4.35742H50.10742V279.75H48.97363v-9.25488h1.13379v3.94336h5.27539v-3.94336h1.13477V279.75H55.38281Z"/>
      <path d="M65.04883,279.75v-7.92285L60.04395,279.75h-1.4043v-9.25488h1.13379V278.418l5.00586-7.92285h1.4043V279.75H65.04883Z"/>
      <path d="M71.81543,271.44922V279.75H70.68164v-8.30078H67.24219v-0.9541h8.0127v0.9541H71.81543Z"/>
      <path d="M82.70605,279.75v-4.35742H77.43066V279.75H76.29688v-9.25488h1.13379v3.94336h5.27539v-3.94336h1.13477V279.75H82.70605Z"/>
      <path d="M87.06055,270.49512v3.63672h3.00684a2.81181,2.81181,0,1,1,0,5.61816H85.92676v-9.25488h1.13379Zm2.7373,4.5918h-2.7373v3.709h2.7373A1.86574,1.86574,0,1,0,89.79785,275.08691Zm6.08594-4.5918V279.75H94.749v-9.25488h1.13477Z"/>
      <path d="M104.37793,279.75v-7.92285L99.373,279.75h-1.4043v-9.25488h1.13379V278.418l5.00586-7.92285h1.4043V279.75h-1.13477Zm-4.501-12.85547a1.66953,1.66953,0,0,0,1.85449,1.47559,1.77657,1.77657,0,0,0,1.9082-1.47559h0.70215a2.49928,2.49928,0,0,1-2.62793,2.34082,2.36,2.36,0,0,1-2.53906-2.34082H99.877Z"/>
      <path d="M116.50879,280.02051c-2.59277,0-4.28516-1.89062-4.28516-4.80762,0-3.02539,1.71094-4.9873,4.32129-4.9873a3.4974,3.4974,0,0,1,3.79883,3.18652h-1.15234a2.50891,2.50891,0,0,0-2.62891-2.251c-1.94434,0-3.16895,1.54883-3.16895,3.96191,0,2.41211,1.18848,3.96094,3.06152,3.96094a2.75384,2.75384,0,0,0,2.82715-2.64746H120.416A3.817,3.817,0,0,1,116.50879,280.02051Z"/>
      <path d="M128.38965,279.75v-7.92285L123.38477,279.75h-1.4043v-9.25488h1.13379V278.418l5.00586-7.92285h1.4043V279.75h-1.13477Z"/>
      <path d="M138.0918,279.75v-8.30078h-3.78125l-0.16211,4.64551c-0.08984,2.75488-.918,3.85352-2.41309,3.85352a2.8452,2.8452,0,0,1-.99023-0.19824v-0.918a2.75687,2.75687,0,0,0,1.00879.16211c0.75586,0,1.20605-.8291,1.27832-2.95312l0.17969-5.5459h6.01367V279.75H138.0918Z"/>
      <path d="M147.72168,279.75v-7.92285L142.71582,279.75h-1.4043v-9.25488h1.13477V278.418l5.00488-7.92285h1.4043V279.75h-1.13379Z"/>
      <path d="M159.02539,279.75h-1.42187l-3.583-4.87988-1.89062,1.74707V279.75h-1.13477v-9.25488h1.13477v4.73535l5.14941-4.73535H158.791l-3.94238,3.60156Z"/>
      <path d="M168.2959,275.1582c0,2.98926-1.6748,4.8623-4.35742,4.8623-2.70117,0-4.41113-1.90918-4.41113-4.89746,0-2.97168,1.72852-4.89746,4.41113-4.89746C166.60352,270.22559,168.2959,272.13379,168.2959,275.1582Zm-7.61621-.03516c0,2.43066,1.24219,3.96094,3.27637,3.96094,1.96289,0,3.20508-1.53027,3.20508-3.94336s-1.25977-3.96094-3.24121-3.96094C161.958,271.17969,160.67969,272.72754,160.67969,275.123Z"/>
      <path d="M176.39551,279.75v-4.35742h-5.27539V279.75h-1.13477v-9.25488h1.13477v3.94336h5.27539v-3.94336h1.13379V279.75h-1.13379Z"/>
      <path d="M187.96973,275.1582c0,2.98926-1.6748,4.8623-4.35742,4.8623-2.70117,0-4.41113-1.90918-4.41113-4.89746,0-2.97168,1.72852-4.89746,4.41113-4.89746C186.27734,270.22559,187.96973,272.13379,187.96973,275.1582Zm-7.61621-.03516c0,2.43066,1.24219,3.96094,3.27637,3.96094,1.96289,0,3.20508-1.53027,3.20508-3.94336s-1.25977-3.96094-3.24121-3.96094C181.63184,271.17969,180.35352,272.72754,180.35352,275.123Z"/>
      <path d="M193.998,279.75h-4.33887v-9.25488H193.998c1.89063,0,2.9707.77441,2.9707,2.19727a2.06752,2.06752,0,0,1-1.60254,2.124v0.03613a2.15492,2.15492,0,0,1,1.96289,2.30469C197.3291,278.832,196.14063,279.75,193.998,279.75Zm-0.126-8.30078H190.793v3.02539h3.0791c1.27832,0,1.96289-.55859,1.96289-1.49512C195.835,271.97168,195.18652,271.44922,193.87207,271.44922Zm0,3.90723H190.793v3.43945h3.0791c1.584,0,2.32227-.59473,2.32227-1.76465C196.19434,275.96875,195.4209,275.35645,193.87207,275.35645Z"/>
      <path d="M200.09961,270.49512v3.63672h3.00684a2.81177,2.81177,0,1,1,0,5.61816h-4.1416v-9.25488h1.13477Zm2.73633,4.5918h-2.73633v3.709h2.73633A1.86584,1.86584,0,1,0,202.83594,275.08691Zm6.08594-4.5918V279.75h-1.13379v-9.25488h1.13379Z"/>
      <path d="M217.417,279.75v-7.92285L212.41113,279.75h-1.4043v-9.25488h1.13477V278.418l5.00488-7.92285h1.4043V279.75H217.417Zm-4.502-12.85547a1.67048,1.67048,0,0,0,1.85547,1.47559,1.77721,1.77721,0,0,0,1.9082-1.47559h0.70215a2.50016,2.50016,0,0,1-2.62891,2.34082,2.36107,2.36107,0,0,1-2.53906-2.34082H212.915Z"/>
      <path d="M229.25977,280.0918c-0.81055,2.16113-1.24316,3.16895-2.7373,3.16895a5.99286,5.99286,0,0,1-.99023-0.08984v-0.99023a2.75181,2.75181,0,0,0,.81055.126c1.09766,0,1.4043-1.09863,1.98047-2.62891l-3.72754-9.18262h1.24316l2.502,6.374c0.32422,0.84668.19824,0.54,0.55859,1.63867,0.28809-.93652.39648-1.333,0.55762-1.76465l2.28711-6.248h1.15234Z"/>
      <path d="M240.41992,279.75v-8.30078h-5.27539V279.75h-1.13379v-9.25488h7.54395V279.75h-1.13477Z"/>
      <path d="M250.12207,279.75v-8.30078h-3.78125l-0.16211,4.64551c-0.08984,2.75488-.918,3.85352-2.41211,3.85352a2.836,2.836,0,0,1-.99023-0.19824v-0.918a2.755,2.755,0,0,0,1.00781.16211c0.75684,0,1.207-.8291,1.27832-2.95312l0.18066-5.5459h6.01367V279.75h-1.13477Z"/>
      <path d="M261.66016,275.1582c0,2.98926-1.67383,4.8623-4.35742,4.8623-2.7002,0-4.41113-1.90918-4.41113-4.89746,0-2.97168,1.72852-4.89746,4.41113-4.89746C259.96777,270.22559,261.66016,272.13379,261.66016,275.1582Zm-7.61621-.03516c0,2.43066,1.24219,3.96094,3.27734,3.96094,1.96191,0,3.20508-1.53027,3.20508-3.94336s-1.26074-3.96094-3.24121-3.96094C255.32227,271.17969,254.04395,272.72754,254.04395,275.123Z"/>
      <path d="M266.53711,271.44922V279.75h-1.13379v-8.30078h-3.43945v-0.9541h8.0127v0.9541h-3.43945Z"/>
      <path d="M277.42773,279.75v-4.35742h-5.27539V279.75h-1.13379v-9.25488h1.13379v3.94336h5.27539v-3.94336h1.13477V279.75h-1.13477Z"/>
      <path d="M287.09375,279.75v-7.92285L282.08789,279.75h-1.4043v-9.25488h1.13477V278.418l5.00488-7.92285h1.4043V279.75h-1.13379Z"/>
      <path d="M293.86035,271.44922V279.75h-1.13379v-8.30078h-3.43945v-0.9541h8.0127v0.9541h-3.43945Z"/>
      <path d="M301.78027,280.05566c-2.5752,0-4.249-1.89062-4.249-4.8252s1.74609-4.9873,4.23145-4.9873c2.73633,0,4.06836,2.26855,4.06836,4.8252v0.32422h-7.14746c0,1.94434.90039,3.74512,3.13281,3.74512a2.74645,2.74645,0,0,0,2.82715-2.43066h1.09766A3.808,3.808,0,0,1,301.78027,280.05566Zm-0.05371-8.876c-2.0166,0-2.82715,1.56641-3.043,3.29492h6.01367C304.57129,272.42188,303.45508,271.17969,301.72656,271.17969Z"/>
      <path d="M313.374,279.75v-8.30078h-3.78125l-0.16211,4.64551c-0.08984,2.75488-.918,3.85352-2.41309,3.85352a2.8452,2.8452,0,0,1-.99023-0.19824v-0.918a2.75687,2.75687,0,0,0,1.00879.16211c0.75586,0,1.20605-.8291,1.27832-2.95312l0.17969-5.5459h6.01367V279.75H313.374Z"/>
      <path d="M317.72754,270.49512v3.63672h3.51074a2.81181,2.81181,0,1,1,0,5.61816h-4.64453v-9.25488h1.13379Zm3.24121,4.5918h-3.24121v3.709h3.24121A1.86574,1.86574,0,1,0,320.96875,275.08691Z"/>
      <path d="M335.13477,275.35645h-4.51953v-1.09766h4.51953v1.09766Z"/>
      <path d="M18.67969,292.44922V300.75H17.5459v-9.25488h6.13965v0.9541H18.67969Z"/>
      <path d="M32.30762,300.69629a2.56259,2.56259,0,0,1-.90039.14355c-1.09766,0-1.20605-.8457-1.20605-1.69238A3.87584,3.87584,0,0,1,26.708,301.002c-1.89062,0-3.02441-.97168-3.02441-2.59277,0-1.69238,1.15234-2.62891,3.43848-2.8623a6.99927,6.99927,0,0,0,2.70117-.48633,0.94474,0.94474,0,0,0,.32422-0.88281c0-1.53027-.93652-1.998-2.41309-1.998a2.18067,2.18067,0,0,0-2.52051,2.17871H24.13379c0.08984-1.98047,1.44043-3.11523,3.72656-3.11523,2.08887,0,3.40332.918,3.40332,2.665v5.041c0,0.55859-.01758.93652,0.6123,0.93652a1.3459,1.3459,0,0,0,.43164-0.05371v0.86426ZM27.627,296.35645c-1.1709.16211-2.75488,0.43262-2.75488,1.94531,0,1.08008.82813,1.76367,2.124,1.76367a2.91625,2.91625,0,0,0,3.15137-2.84473V295.708C29.78711,296.10449,28.86914,296.19434,27.627,296.35645Z"/>
      <path d="M34.61035,293.27734a3.41468,3.41468,0,0,1,3.3125-2.05176c2.52148,0,4.17773,1.96191,4.17773,4.93262,0,2.93555-1.65625,4.87988-4.1416,4.87988a3.38953,3.38953,0,0,1-3.27637-1.999v5.168H33.584V291.49512h1.02637v1.78223Zm0.03613,2.86328c0,2.43066,1.22363,3.94336,3.16895,3.94336,1.89063,0,3.13281-1.54883,3.13281-3.92578,0-2.43066-1.22461-3.99707-3.16895-3.99707S34.64648,293.65625,34.64648,296.14063Z"/>
      <path d="M51.98145,300.69629a2.56259,2.56259,0,0,1-.90039.14355c-1.09766,0-1.20605-.8457-1.20605-1.69238a3.87584,3.87584,0,0,1-3.49316,1.85449c-1.89062,0-3.02441-.97168-3.02441-2.59277,0-1.69238,1.15234-2.62891,3.43848-2.8623a6.99927,6.99927,0,0,0,2.70117-.48633,0.94474,0.94474,0,0,0,.32422-0.88281c0-1.53027-.93652-1.998-2.41309-1.998a2.18067,2.18067,0,0,0-2.52051,2.17871H43.80762c0.08984-1.98047,1.44043-3.11523,3.72656-3.11523,2.08887,0,3.40332.918,3.40332,2.665v5.041c0,0.55859-.01758.93652,0.6123,0.93652a1.3459,1.3459,0,0,0,.43164-0.05371v0.86426Zm-4.68066-4.33984c-1.1709.16211-2.75488,0.43262-2.75488,1.94531,0,1.08008.82813,1.76367,2.124,1.76367a2.91625,2.91625,0,0,0,3.15137-2.84473V295.708C49.46094,296.10449,48.543,296.19434,47.30078,296.35645Z"/>
      <path d="M59.5957,300.75v-4.35742H54.32031V300.75H53.18555v-9.25488h1.13477v3.94336H59.5957v-3.94336h1.13379V300.75H59.5957Z"/>
      <path d="M66.3623,292.44922V300.75H65.22754v-8.30078H61.78906v-0.9541h8.01172v0.9541H66.3623Z"/>
      <path d="M77.25293,300.75v-7.92285L72.24707,300.75h-1.4043v-9.25488h1.13477V299.418l5.00488-7.92285h1.4043V300.75H77.25293Z"/>
      <path d="M81.60742,293.27734a3.41468,3.41468,0,0,1,3.3125-2.05176c2.52148,0,4.17773,1.96191,4.17773,4.93262,0,2.93555-1.65625,4.87988-4.1416,4.87988a3.38953,3.38953,0,0,1-3.27637-1.999v5.168H80.58105V291.49512h1.02637v1.78223Zm0.03613,2.86328c0,2.43066,1.22363,3.94336,3.16895,3.94336,1.89063,0,3.13281-1.54883,3.13281-3.92578,0-2.43066-1.22461-3.99707-3.16895-3.99707S81.64355,293.65625,81.64355,296.14063Z"/>
      <path d="M99.15918,296.1582c0,2.98926-1.6748,4.8623-4.35742,4.8623-2.70117,0-4.41113-1.90918-4.41113-4.89746,0-2.97168,1.72852-4.89746,4.41113-4.89746C97.4668,291.22559,99.15918,293.13379,99.15918,296.1582ZM91.543,296.123c0,2.43066,1.24219,3.96094,3.27637,3.96094,1.96289,0,3.20508-1.53027,3.20508-3.94336s-1.25977-3.96094-3.24121-3.96094C92.82129,292.17969,91.543,293.72754,91.543,296.123Z"/>
      <path d="M105.18848,300.75h-4.33984v-9.25488h4.33984c1.88965,0,2.9707.77441,2.9707,2.19727a2.06847,2.06847,0,0,1-1.60254,2.124v0.03613a2.15416,2.15416,0,0,1,1.96191,2.30469C108.51855,299.832,107.33105,300.75,105.18848,300.75Zm-0.127-8.30078H101.9834v3.02539h3.07813c1.2793,0,1.96289-.55859,1.96289-1.49512C107.02441,292.97168,106.376,292.44922,105.06152,292.44922Zm0,3.90723H101.9834v3.43945h3.07813c1.585,0,2.32324-.59473,2.32324-1.76465C107.38477,296.96875,106.61035,296.35645,105.06152,296.35645Z"/>
      <path d="M118.3291,300.69629a2.56616,2.56616,0,0,1-.90039.14355c-1.09863,0-1.20605-.8457-1.20605-1.69238a3.87692,3.87692,0,0,1-3.49316,1.85449c-1.89062,0-3.02539-.97168-3.02539-2.59277,0-1.69238,1.15234-2.62891,3.43945-2.8623a6.99285,6.99285,0,0,0,2.7002-.48633,0.94474,0.94474,0,0,0,.32422-0.88281c0-1.53027-.93555-1.998-2.41211-1.998a2.18192,2.18192,0,0,0-2.52148,2.17871H110.1543c0.08984-1.98047,1.44043-3.11523,3.72754-3.11523,2.08887,0,3.40234.918,3.40234,2.665v5.041c0,0.55859-.01758.93652,0.6123,0.93652a1.35146,1.35146,0,0,0,.43262-0.05371v0.86426Zm-4.68164-4.33984c-1.16992.16211-2.75488,0.43262-2.75488,1.94531,0,1.08008.82813,1.76367,2.125,1.76367a2.9154,2.9154,0,0,0,3.15039-2.84473V295.708C115.80859,296.10449,114.88965,296.19434,113.64746,296.35645Z"/>
      <path d="M125.94238,300.75v-4.35742H120.667V300.75h-1.13477v-9.25488H120.667v3.94336h5.27539v-3.94336h1.13379V300.75h-1.13379Z"/>
      <path d="M135.6084,300.75v-4.35742H130.333V300.75h-1.13477v-9.25488H130.333v3.94336h5.27539v-3.94336h1.13379V300.75H135.6084Z"/>
      <path d="M147.18262,296.1582c0,2.98926-1.6748,4.8623-4.35742,4.8623-2.70117,0-4.41113-1.90918-4.41113-4.89746,0-2.97168,1.72852-4.89746,4.41113-4.89746C145.49023,291.22559,147.18262,293.13379,147.18262,296.1582Zm-7.61621-.03516c0,2.43066,1.24219,3.96094,3.27637,3.96094,1.96289,0,3.20508-1.53027,3.20508-3.94336s-1.25977-3.96094-3.24121-3.96094C140.84473,292.17969,139.56641,293.72754,139.56641,296.123Z"/>
      <path d="M152.63574,301.05566c-2.5752,0-4.25-1.89062-4.25-4.8252s1.74707-4.9873,4.23145-4.9873c2.7373,0,4.06934,2.26855,4.06934,4.8252v0.32422h-7.14844c0,1.94434.90039,3.74512,3.13281,3.74512A2.74645,2.74645,0,0,0,155.498,297.707h1.09863A3.80926,3.80926,0,0,1,152.63574,301.05566Zm-0.05469-8.876c-2.0166,0-2.82617,1.56641-3.043,3.29492h6.01367C155.42578,293.42188,154.30957,292.17969,152.58105,292.17969Z"/>
      <path d="M171.53613,296.1582c0,2.98926-1.67383,4.8623-4.35742,4.8623-2.7002,0-4.41113-1.90918-4.41113-4.89746,0-2.97168,1.72852-4.89746,4.41113-4.89746C169.84375,291.22559,171.53613,293.13379,171.53613,296.1582Zm-7.61621-.03516c0,2.43066,1.24219,3.96094,3.27734,3.96094,1.96191,0,3.20508-1.53027,3.20508-3.94336s-1.26074-3.96094-3.24121-3.96094C165.19824,292.17969,163.91992,293.72754,163.91992,296.123Z"/>
      <path d="M176.41309,292.44922V300.75h-1.13477v-8.30078h-3.43848v-0.9541h8.01172v0.9541h-3.43848Z"/>
      <path d="M184.44141,301.02051c-2.59277,0-4.28516-1.89062-4.28516-4.80762,0-3.02539,1.71-4.9873,4.32129-4.9873a3.4974,3.4974,0,0,1,3.79883,3.18652H187.124a2.50891,2.50891,0,0,0-2.62891-2.251c-1.94434,0-3.16895,1.54883-3.16895,3.96191,0,2.41211,1.18848,3.96094,3.06055,3.96094a2.75324,2.75324,0,0,0,2.82715-2.64746h1.13477A3.81763,3.81763,0,0,1,184.44141,301.02051Z"/>
      <path d="M193.2793,301.0918c-0.81055,2.16113-1.24316,3.16895-2.7373,3.16895a5.99286,5.99286,0,0,1-.99023-0.08984v-0.99023a2.75182,2.75182,0,0,0,.81055.126c1.09766,0,1.4043-1.09863,1.98047-2.62891l-3.72754-9.18262h1.24316l2.502,6.374c0.32422,0.84668.19824,0.54,0.55859,1.63867,0.28809-.93652.39648-1.333,0.55762-1.76465l2.28711-6.248H196.916Z"/>
      <path d="M201.541,292.44922V300.75h-1.13477v-8.30078h-3.43848v-0.9541h8.01172v0.9541H201.541Z"/>
      <path d="M209.56934,301.02051c-2.59277,0-4.28516-1.89062-4.28516-4.80762,0-3.02539,1.71-4.9873,4.32129-4.9873a3.4974,3.4974,0,0,1,3.79883,3.18652H212.252a2.50891,2.50891,0,0,0-2.62891-2.251c-1.94434,0-3.16895,1.54883-3.16895,3.96191,0,2.41211,1.18848,3.96094,3.06055,3.96094a2.75324,2.75324,0,0,0,2.82715-2.64746h1.13477A3.81763,3.81763,0,0,1,209.56934,301.02051Z"/>
      <path d="M218.55078,292.44922V300.75H217.416v-8.30078h-3.43848v-0.9541h8.01172v0.9541h-3.43848Z"/>
      <path d="M227.37109,300.75h-4.33887v-9.25488h4.33887c1.89063,0,2.9707.77441,2.9707,2.19727a2.06752,2.06752,0,0,1-1.60254,2.124v0.03613a2.15492,2.15492,0,0,1,1.96289,2.30469C230.70215,299.832,229.51367,300.75,227.37109,300.75Zm-0.126-8.30078H224.166v3.02539h3.0791c1.27832,0,1.96289-.55859,1.96289-1.49512C229.208,292.97168,228.55957,292.44922,227.24512,292.44922Zm0,3.90723H224.166v3.43945h3.0791c1.584,0,2.32227-.59473,2.32227-1.76465C229.56738,296.96875,228.79395,296.35645,227.24512,296.35645Z"/>
      <path d="M238.7832,300.75v-7.92285L233.77832,300.75H232.374v-9.25488h1.13379V299.418l5.00586-7.92285h1.4043V300.75H238.7832Z"/>
      <path d="M245.80273,301.05566c-2.5752,0-4.25-1.89062-4.25-4.8252s1.74707-4.9873,4.23145-4.9873c2.7373,0,4.06934,2.26855,4.06934,4.8252v0.32422h-7.14844c0,1.94434.90039,3.74512,3.13281,3.74512A2.74645,2.74645,0,0,0,248.665,297.707h1.09863A3.80926,3.80926,0,0,1,245.80273,301.05566Zm-0.05469-8.876c-2.0166,0-2.82617,1.56641-3.043,3.29492h6.01367C248.59277,293.42188,247.47656,292.17969,245.748,292.17969Z"/>
      <path d="M256.33105,291.49512h1.13477v8.30078h4.33887v-8.30078h1.13477v8.30078h4.33887v-8.30078h1.13477v8.30078h1.27832v3.90723h-1.13477V300.75H256.33105v-9.25488Z"/>
      <path d="M274.69238,301.05566c-2.5752,0-4.249-1.89062-4.249-4.8252s1.74609-4.9873,4.23145-4.9873c2.73633,0,4.06836,2.26855,4.06836,4.8252v0.32422H271.5957c0,1.94434.90039,3.74512,3.13281,3.74512a2.74645,2.74645,0,0,0,2.82715-2.43066h1.09766A3.808,3.808,0,0,1,274.69238,301.05566Zm-0.05371-8.876c-2.0166,0-2.82715,1.56641-3.043,3.29492h6.01367C277.4834,293.42188,276.36719,292.17969,274.63867,292.17969Z"/>
      <path d="M286.28516,300.75v-8.30078h-3.78125l-0.16211,4.64551c-0.08984,2.75488-.918,3.85352-2.41211,3.85352a2.836,2.836,0,0,1-.99023-0.19824v-0.918a2.755,2.755,0,0,0,1.00781.16211c0.75684,0,1.207-.8291,1.27832-2.95312l0.18066-5.5459h6.01367V300.75h-1.13477Z"/>
      <path d="M293.26855,301.05566c-2.5752,0-4.249-1.89062-4.249-4.8252s1.74609-4.9873,4.23145-4.9873c2.73633,0,4.06836,2.26855,4.06836,4.8252v0.32422h-7.14746c0,1.94434.90039,3.74512,3.13281,3.74512a2.74645,2.74645,0,0,0,2.82715-2.43066h1.09766A3.808,3.808,0,0,1,293.26855,301.05566Zm-0.05371-8.876c-2.0166,0-2.82715,1.56641-3.043,3.29492h6.01367C296.05957,293.42188,294.94336,292.17969,293.21484,292.17969Z"/>
      <path d="M305.25684,300.75v-7.92285L300.252,300.75h-1.4043v-9.25488h1.13379V299.418l5.00586-7.92285h1.4043V300.75h-1.13477Zm-4.501-12.85547a1.66953,1.66953,0,0,0,1.85449,1.47559,1.77657,1.77657,0,0,0,1.9082-1.47559h0.70215a2.49928,2.49928,0,0,1-2.62793,2.34082,2.36,2.36,0,0,1-2.53906-2.34082h0.70215Z"/>
    </g>
    <circle cx="5.625" cy="9.12781" r="4.69661" fill="#2b85c3"/>
    <circle cx="5.625" cy="43.52364" r="4.69661" fill="#2b85c3"/>
    <circle cx="5.625" cy="77.04094" r="4.69661" fill="#2b85c3"/>
    <circle cx="5.625" cy="110.85954" r="4.69661" fill="#2b85c3"/>
    <circle cx="5.625" cy="164.6875" r="4.69661" fill="#2b85c3"/>
    <circle cx="5.625" cy="218.68901" r="4.69661" fill="#2b85c3"/>
    <circle cx="5.625" cy="273.05375" r="4.69661" fill="#2b85c3"/>
  </g>
</svg>
