<?xml version="1.0" encoding="utf-8"?>
<!-- Generator: Adobe Illustrator 19.2.1, SVG Export Plug-In . SVG Version: 6.00 Build 0)  -->
<svg version="1.1" id="Layer_1" xmlns="http://www.w3.org/2000/svg" xmlns:xlink="http://www.w3.org/1999/xlink" x="0px" y="0px"
	 viewBox="0 0 455.7 455.7" style="enable-background:new 0 0 455.7 455.7;" xml:space="preserve">
<style type="text/css">
	.st0{fill:url(#SVGID_1_);}
	.st1{fill:#5B6CB2;}
</style>
<linearGradient id="SVGID_1_" gradientUnits="userSpaceOnUse" x1="76.9734" y1="489.176" x2="378.7267" y2="-33.476">
	<stop  offset="7.446808e-002" style="stop-color:#F6AE59"/>
	<stop  offset="0.2553" style="stop-color:#EB5749"/>
	<stop  offset="0.4362" style="stop-color:#CC3A7B"/>
	<stop  offset="0.5638" style="stop-color:#A05099"/>
	<stop  offset="1" style="stop-color:#5B6CB2"/>
</linearGradient>
<path class="st0" d="M227.9,182.6c-25,0-45.3,20.3-45.3,45.3s20.3,45.3,45.3,45.3s45.3-20.3,45.3-45.3
	C273.2,202.9,252.9,182.6,227.9,182.6z M227.9,182.6c-25,0-45.3,20.3-45.3,45.3s20.3,45.3,45.3,45.3s45.3-20.3,45.3-45.3
	C273.2,202.9,252.9,182.6,227.9,182.6z M303.4,108.7h-151c-24.1,0-43.7,19.6-43.7,43.7v151c0,24.1,19.6,43.7,43.7,43.7h151
	c24.1,0,43.7-19.6,43.7-43.7v-151C347.1,128.3,327.5,108.7,303.4,108.7z M227.9,306.4c-43.3,0-78.5-35.2-78.5-78.5
	s35.2-78.5,78.5-78.5s78.5,35.2,78.5,78.5C306.4,271.1,271.1,306.4,227.9,306.4z M308.9,165.6c-10.2,0-18.6-8.3-18.6-18.6
	s8.3-18.6,18.6-18.6s18.6,8.3,18.6,18.6S319.1,165.6,308.9,165.6z M227.9,182.6c-25,0-45.3,20.3-45.3,45.3s20.3,45.3,45.3,45.3
	s45.3-20.3,45.3-45.3C273.2,202.9,252.9,182.6,227.9,182.6z M303.4,108.7h-151c-24.1,0-43.7,19.6-43.7,43.7v151
	c0,24.1,19.6,43.7,43.7,43.7h151c24.1,0,43.7-19.6,43.7-43.7v-151C347.1,128.3,327.5,108.7,303.4,108.7z M227.9,306.4
	c-43.3,0-78.5-35.2-78.5-78.5s35.2-78.5,78.5-78.5s78.5,35.2,78.5,78.5C306.4,271.1,271.1,306.4,227.9,306.4z M308.9,165.6
	c-10.2,0-18.6-8.3-18.6-18.6s8.3-18.6,18.6-18.6s18.6,8.3,18.6,18.6S319.1,165.6,308.9,165.6z M227.9,182.6
	c-25,0-45.3,20.3-45.3,45.3s20.3,45.3,45.3,45.3s45.3-20.3,45.3-45.3C273.2,202.9,252.9,182.6,227.9,182.6z M0,26v403.7
	c0,14.4,11.6,26,26,26h403.7c14.4,0,26-11.6,26-26V26c0-14.4-11.6-26-26-26H26C11.6,0,0,11.6,0,26z M380.2,303.4
	c0,42.4-34.5,76.9-76.9,76.9h-151c-42.4,0-76.9-34.5-76.9-76.9v-151c0-42.4,34.5-76.9,76.9-76.9h151c42.4,0,76.9,34.5,76.9,76.9
	V303.4L380.2,303.4z M303.4,108.7h-151c-24.1,0-43.7,19.6-43.7,43.7v151c0,24.1,19.6,43.7,43.7,43.7h151c24.1,0,43.7-19.6,43.7-43.7
	v-151C347.1,128.3,327.5,108.7,303.4,108.7z M227.9,306.4c-43.3,0-78.5-35.2-78.5-78.5s35.2-78.5,78.5-78.5s78.5,35.2,78.5,78.5
	C306.4,271.1,271.1,306.4,227.9,306.4z M308.9,165.6c-10.2,0-18.6-8.3-18.6-18.6s8.3-18.6,18.6-18.6s18.6,8.3,18.6,18.6
	S319.1,165.6,308.9,165.6z M227.9,182.6c-25,0-45.3,20.3-45.3,45.3s20.3,45.3,45.3,45.3s45.3-20.3,45.3-45.3
	C273.2,202.9,252.9,182.6,227.9,182.6z M227.9,182.6c-25,0-45.3,20.3-45.3,45.3s20.3,45.3,45.3,45.3s45.3-20.3,45.3-45.3
	C273.2,202.9,252.9,182.6,227.9,182.6z M227.9,182.6c-25,0-45.3,20.3-45.3,45.3s20.3,45.3,45.3,45.3s45.3-20.3,45.3-45.3
	C273.2,202.9,252.9,182.6,227.9,182.6z M303.4,108.7h-151c-24.1,0-43.7,19.6-43.7,43.7v151c0,24.1,19.6,43.7,43.7,43.7h151
	c24.1,0,43.7-19.6,43.7-43.7v-151C347.1,128.3,327.5,108.7,303.4,108.7z M227.9,306.4c-43.3,0-78.5-35.2-78.5-78.5
	s35.2-78.5,78.5-78.5s78.5,35.2,78.5,78.5C306.4,271.1,271.1,306.4,227.9,306.4z M308.9,165.6c-10.2,0-18.6-8.3-18.6-18.6
	s8.3-18.6,18.6-18.6s18.6,8.3,18.6,18.6S319.1,165.6,308.9,165.6z M227.9,182.6c-25,0-45.3,20.3-45.3,45.3s20.3,45.3,45.3,45.3
	s45.3-20.3,45.3-45.3C273.2,202.9,252.9,182.6,227.9,182.6z M227.9,182.6c-25,0-45.3,20.3-45.3,45.3s20.3,45.3,45.3,45.3
	s45.3-20.3,45.3-45.3C273.2,202.9,252.9,182.6,227.9,182.6z M227.9,182.6c-25,0-45.3,20.3-45.3,45.3s20.3,45.3,45.3,45.3
	s45.3-20.3,45.3-45.3C273.2,202.9,252.9,182.6,227.9,182.6z M303.4,108.7h-151c-24.1,0-43.7,19.6-43.7,43.7v151
	c0,24.1,19.6,43.7,43.7,43.7h151c24.1,0,43.7-19.6,43.7-43.7v-151C347.1,128.3,327.5,108.7,303.4,108.7z M227.9,306.4
	c-43.3,0-78.5-35.2-78.5-78.5s35.2-78.5,78.5-78.5s78.5,35.2,78.5,78.5C306.4,271.1,271.1,306.4,227.9,306.4z M308.9,165.6
	c-10.2,0-18.6-8.3-18.6-18.6s8.3-18.6,18.6-18.6s18.6,8.3,18.6,18.6S319.1,165.6,308.9,165.6z M227.9,182.6
	c-25,0-45.3,20.3-45.3,45.3s20.3,45.3,45.3,45.3s45.3-20.3,45.3-45.3C273.2,202.9,252.9,182.6,227.9,182.6z"/>
<rect x="-269.9" y="-85.4" class="st1" width="198" height="58.5"/>
</svg>
