<?xml version="1.0" encoding="utf-8"?>
<!-- Generator: Adobe Illustrator 19.2.1, SVG Export Plug-In . SVG Version: 6.00 Build 0)  -->
<svg version="1.1" id="Capa_1" xmlns="http://www.w3.org/2000/svg" xmlns:xlink="http://www.w3.org/1999/xlink" x="0px" y="0px"
	 viewBox="0 0 512 512" style="enable-background:new 0 0 512 512;" xml:space="preserve">
<style type="text/css">
	.st0{fill:#FFFFFF;}
</style>
<g>
	<path class="st0" d="M320,489.6c-62.1,0-94-8.9-115.1-14.9c-9.9-2.8-17.1-4.8-23.5-4.8H95.8c-4.2,0-7.6-3.4-7.6-7.6v-178
		c0-4.2,3.4-7.6,7.6-7.6c29.6,0,55.3-16.4,76.3-48.7c29.5-45.5,46.9-71,78-111.2c29.5-38,45.8-79.7,48.8-92.9l1.1-5.3
		C301.8,9.6,303.6,0,319,0c30.2,0,46.4,34.8,46.4,67.6c0,20.2-7.6,47.4-23.3,83.2c-6.1,13.9-5.1,23.6-2.5,27.7c1.3,2,3.2,3,5.9,3
		h120c14.6,1.7,40.5,13.1,40.5,44.4c0,20.8-7.5,32.3-14.6,38.6c7,6.4,14.6,17.5,14.6,35.6c0,21.1-14,34.4-24.3,41.4
		c5.4,6.1,10.5,16.4,10.5,33.4c0,24.1-20.6,36.4-33.7,41.8c5.2,9.4,6.2,20.5,3.6,35.7C457.7,478.5,415.2,489.6,320,489.6z
		 M103.4,454.8h78c8.6,0,17,2.4,27.6,5.4c20.3,5.7,51,14.3,111.1,14.3c107.1,0,125.7-15.5,127.3-24.7c3-17.7-0.2-25.3-6.4-31.9
		c-1.9-2-2.5-4.8-1.7-7.4c0.8-2.6,2.9-4.6,5.5-5.2c0.3-0.1,32.5-7.9,32.5-30.5c0-22.5-11.2-27.1-11.7-27.3c-2.9-1.1-4.9-3.9-4.9-7
		s1.7-5.9,4.6-7.1c0.3-0.1,25.8-10.8,25.8-33.3c0-22.5-16.1-28.8-16.2-28.8c-3.1-1.2-5.1-4.2-4.9-7.5c0.2-3.3,2.5-6.1,5.7-6.9
		c0.5-0.2,15.4-4.9,15.4-31c0-25.9-25.2-29.2-26.3-29.3l-119.1,0c-7.8,0-14.4-3.5-18.5-9.8c-6.5-10-6.1-25.3,1.3-42
		c14.8-33.8,22-59,22-77.1c0-21.8-9.7-52.4-31.3-52.4c-2.3,0-3,0.3-3,0.3c-0.1,0.4-0.7,3.7-1.2,6.3l-1.2,5.7
		c-3.2,14.2-20.5,58.9-51.6,98.9c-30.8,39.8-48,65-77.3,110.1c-22.2,34.2-49.5,52.8-81.4,55.3L103.4,454.8L103.4,454.8z"/>
	<path class="st0" d="M95.8,512H13.5c-4.2,0-7.6-3.4-7.6-7.6V244.8c0-4.2,3.4-7.6,7.6-7.6h82.3c4.2,0,7.6,3.4,7.6,7.6v259.7
		C103.4,508.6,100,512,95.8,512z M21.1,496.9h67.2V252.3H21.1V496.9z"/>
</g>
</svg>
