<?xml version="1.0" encoding="utf-8"?>
<!-- Generator: Adobe Illustrator 19.2.1, SVG Export Plug-In . SVG Version: 6.00 Build 0)  -->
<svg version="1.1" id="Capa_1" xmlns="http://www.w3.org/2000/svg" xmlns:xlink="http://www.w3.org/1999/xlink" x="0px" y="0px"
	 viewBox="0 0 512 512" style="enable-background:new 0 0 512 512;" xml:space="preserve">
<style type="text/css">
	.st0{fill:#FFFFFF;}
</style>
<g>
	<g>
		<g>
			<path class="st0" d="M205.8,0c-51.6,0-93.4,41.8-93.4,93.4s41.8,93.4,93.4,93.4c51.6,0,93.4-41.8,93.4-93.4
				C299.2,41.8,257.4,0,205.8,0z M205.8,175.4c-45.3,0-82-36.7-82-82c0-45.3,36.7-82,82-82c45.3,0,82,36.7,82,82
				C287.9,138.7,251.2,175.4,205.8,175.4z"/>
			<path class="st0" d="M235.4,91.8c-4.5-3.1-13-6.4-25.6-9.9V42.3c7.5,0.3,12.9,3.2,16.3,8.6c1.8,3,2.9,6.5,3.3,10.6h14.2
				c-0.3-9.2-3.3-16.6-9-22.2c-5.8-5.6-14.1-8.8-24.8-9.5V19.3h-7.7v10.8c-10.9,0.1-19.3,3.5-25.4,10.1c-6,6.6-9,14-9,22.3
				c0,9.2,2.8,16.4,8.4,21.6s14.3,8.9,26,11.1v44.3c-9.2-0.8-15.4-4.2-18.8-10.3c-1.9-3.4-3.1-8.8-3.5-16.2h-14.4
				c0,9.3,1.6,16.7,4.6,22.2c5.6,10.1,16.4,15.7,32.1,16.7v15.8h7.7v-15.8c9.8-1.1,17.3-3.3,22.5-6.7c9.4-6.1,14-16.3,14-30.7
				C246.4,104.5,242.7,96.9,235.4,91.8z M202.1,80.4c-6.1-1.2-10.9-3.3-14.5-6.3c-3.6-3-5.4-7.2-5.4-12.6c0-4.4,1.5-8.7,4.5-12.8
				c3-4.1,8.1-6.2,15.3-6.5L202.1,80.4L202.1,80.4z M229,129.7c-3.5,6.3-9.9,9.7-19.2,10.1V97.1c6.8,1.8,11.6,3.8,14.4,5.8
				c5,3.5,7.5,8.7,7.5,15.4C231.7,122.7,230.8,126.4,229,129.7z"/>
		</g>
		<g>
			<path class="st0" d="M141.6,234.6l5.2,14.7c39.6-14,83.5-14.2,123.3-0.4l5.1-14.7C232,219.2,184.5,219.3,141.6,234.6z"/>
			<path class="st0" d="M497.7,325.7l-0.4-6.8l-6.8-0.5c-5.8-0.4-13-0.1-19.5,0.1c-3.6,0.1-7.7,0.3-10.6,0.3
				c-15.1-28.3-36-49.4-62.2-62.7c1-14.5,3.5-28.1,11.4-34.6l15.1-12.5l-19.5-1.3c-27.9-1.8-50.8,15.5-64.4,29.3
				c-28.8-25.2-78.8-40.5-133.3-40.5c-0.1,0-0.3,0-0.4,0c-53.8,0.1-102.9,14.8-139.2,41l-7.3-4.9c-9-6.1-19-6.7-27.4-1.3
				c-13.1,8.4-18.6,28-16.3,42.1c1.3,7.6,4.7,13.8,9.7,17.8c-19,34.8-18.5,90.9,11.3,118.8c4.4,36.6,11.3,73.6,31,99.1l2.3,3h73.7
				l-1.1-8.8c-1.1-9-2.4-18.9-2.3-29.6c34.1,6.7,73.9,8.7,113.7,5.9c6,10,12.2,20.4,19.7,29.6l2.3,2.9h64.1l8.8-0.8l-1.2-8.9
				c-1.9-13.5-3.8-27.5-1.3-40.8c19.3-4.7,89.9-24.6,138.8-75.5h0C498.2,373.8,499.4,353.9,497.7,325.7z M475.2,375.3
				c-53.5,55.7-134.8,72-135.6,72.2l-4.8,0.9l-1.2,4.8c-3.9,14.6-2.9,28.9-1.1,43.3h-47.7c-5.9-7.7-11-16.2-16.3-25.2l-4.8-8
				l-4.9,0.4c-43.4,3.6-87.1,1-122.8-7.1l-8.6-1.9l-0.8,8.8c-1.2,12-0.3,23.2,0.8,33H78.9C62.7,473.3,56.9,439,53,405.2l-0.4-3
				l-2.4-2c-27.1-22.9-26.1-79.2-6.2-107.6l6.5-9.3l-11-2.7c-3.9-1-6.4-4.2-7.3-9.6c-0.9-5.5,0.1-11.9,2.3-17.2
				c-0.5,2.4-0.5,4.8,0.2,7c1,3.3,4.3,9,15.3,9.8l3.7,0.3l2.6-2.7c33.9-35.5,88.9-55.9,150.7-55.9c0.1,0,0.3,0,0.4,0
				c54.4,0,103.4,15.9,128,41.4l5.9,6.1l5.6-6.4c8.2-9.5,23.3-23.8,41.8-28.6c-4.3,10.4-5.7,23.1-6.4,35.7l-0.3,5.3l4.8,2.2
				c26.8,12.3,47,32.5,61.6,61.8l1.7,3.5l3.8,0.7c3.7,0.7,9.1,0.6,17.5,0.2c3.6-0.1,7.4-0.3,11-0.3
				C483.3,351.4,482.4,367.7,475.2,375.3L475.2,375.3z"/>
			<circle class="st0" cx="397.6" cy="314.5" r="13.2"/>
		</g>
	</g>
</g>
</svg>
