<?xml version="1.0" encoding="utf-8"?>
<!-- Generator: Adobe Illustrator 19.2.1, SVG Export Plug-In . SVG Version: 6.00 Build 0)  -->
<svg version="1.1" id="Capa_1" xmlns="http://www.w3.org/2000/svg" xmlns:xlink="http://www.w3.org/1999/xlink" x="0px" y="0px"
	 viewBox="0 0 512 512" style="enable-background:new 0 0 512 512;" xml:space="preserve">
<style type="text/css">
	.st0{fill:#FFFFFF;}
</style>
<g id="Queen_1_">
	<path id="Queen" class="st0" d="M480.4,97c-17.9,0-32.4,14.5-32.4,32.4c0,9.5,4.2,17.9,10.6,23.8L325.5,262.5l-60.8-133.9
		c13.8-3.7,24-16.2,24-31.2c0-17.9-14.5-32.4-32.4-32.4S224,79.5,224,97.4c0,15,10.2,27.4,24,31.2l-60.8,133.9L54.1,153.2
		c6.5-5.9,10.6-14.4,10.6-23.8c0-17.9-14.5-32.4-32.4-32.4S0,111.5,0,129.4s14.5,32.4,32.4,32.4c2.9,0,5.7-0.5,8.3-1.2
		c0.1,0.2,0,0.5,0.1,0.7L117.1,394h-12.7c-4.1,0-7.4,3.3-7.4,7.4v32c0,4.1,3.3,7.4,7.4,7.4h304c4.1,0,7.4-3.3,7.4-7.4v-32
		c0-4.1-3.3-7.4-7.4-7.4h-12.7L472,161.3c0.1-0.2,0.1-0.5,0.1-0.7c2.7,0.7,5.4,1.2,8.3,1.2c17.9,0,32.4-14.5,32.4-32.4
		S498.2,97,480.4,97z M16.8,129.4c0-8.6,7-15.6,15.6-15.6c8.6,0,15.6,7,15.6,15.6c0,8.6-7,15.6-15.6,15.6S16.8,138,16.8,129.4z
		 M401,426H111.8v-17.3H401L401,426L401,426z M240.8,97.4c0-8.6,7-15.6,15.6-15.6c8.6,0,15.6,7,15.6,15.6s-7,15.6-15.6,15.6
		S240.8,106,240.8,97.4z M379.2,393.4H133.6L64.5,182.3l120.7,99.1c1.9,1.6,4.5,2.2,6.9,1.6c2.4-0.6,4.4-2.2,5.4-4.5l58.9-129.8
		l58.9,129.8c1,2.3,3,3.9,5.4,4.5c2.4,0.6,4.9,0,6.9-1.6l120.7-99.1L379.2,393.4z M480.4,145c-8.6,0-15.6-7-15.6-15.6
		c0-8.6,7-15.6,15.6-15.6c8.6,0,15.6,7,15.6,15.6C496,138,489,145,480.4,145z"/>
</g>
</svg>
