<svg id="Designed_by_Freepik" data-name="Designed by Freepik" xmlns="http://www.w3.org/2000/svg" viewBox="0 0 270 148.57324">
  <title>Ярлыки</title>
  <g id="Objects">
    <g>
      <path id="_Контур_" data-name="&lt;Контур&gt;" d="M76.18667,147.001a57.31645,57.31645,0,0,0,31.443-19.807l7.76627-1.845c0.42518-.56734.83621-1.14468,1.2407-1.72655L256.89256,90.30316,270,42.75771,236.46728,4.32418,96.2119,37.64344c-0.58766-.31866-1.1788-0.631-1.7771-0.92985l-7.76,1.84347A57.57643,57.57643,0,1,0,76.18667,147.001Z" fill="#cec8cb"/>
      <g id="_Группа_" data-name="&lt;Группа&gt;">
        <polygon id="_Контур_2" data-name="&lt;Контур&gt;" points="253.828 88.286 60.307 134.259 39.881 48.28 233.403 2.307 266.935 40.74 253.828 88.286" fill="#cc2e2e" stroke="#fff" stroke-miterlimit="10" stroke-width="3"/>
        <polygon id="_Контур_3" data-name="&lt;Контур&gt;" points="248.361 83.326 81.506 122.965 63.896 48.833 230.75 9.195 259.662 42.333 248.361 83.326" fill="none" stroke="#fff" stroke-miterlimit="10" stroke-dasharray="3"/>
      </g>
      <path id="_Контур_4" data-name="&lt;Контур&gt;" d="M78.88305,131.27783l33.44818-7.946A59.27749,59.27749,0,0,0,91.37005,34.69625l-33.5383,7.9674Z" fill="#c12121"/>
      <g id="_Группа_2" data-name="&lt;Группа&gt;">
        <circle id="_Контур_5" data-name="&lt;Контур&gt;" cx="59.81387" cy="88.96034" r="57.58195" transform="translate(-18.94173 16.23348) rotate(-13.36354)" fill="#d83c38" stroke="#fff" stroke-miterlimit="10" stroke-width="3"/>
        <g id="_Группа_3" data-name="&lt;Группа&gt;">
          <circle cx="59.81396" cy="88.96033" r="51.93994" transform="translate(-18.94173 16.2335) rotate(-13.36354)" fill="none" stroke="#fff" stroke-miterlimit="10" stroke-dasharray="3.02096 3.02096"/>
        </g>
      </g>
      <g id="_Группа_4" data-name="&lt;Группа&gt;">
        <path d="M48.07129,103.01172L46.76221,97.5,56.8916,79.69922a33.82423,33.82423,0,0,0,2.83008-6.69434,9.49523,9.49523,0,0,0,.21631-4.6084,6.67069,6.67069,0,0,0-2.46-4.00391,5.15711,5.15711,0,0,0-4.45557-.72461A5.38579,5.38579,0,0,0,49.062,66.69629a8.66812,8.66812,0,0,0-.26367,5.626L40.603,74.26953l-0.09961-.15918a13.05572,13.05572,0,0,1,1.45117-10.51074q2.9458-4.86182,9.52539-6.4248,6.49219-1.54248,11.01758.9502a11.88336,11.88336,0,0,1,5.86133,8.11816,13.05933,13.05933,0,0,1-.41943,7.53809,68.07951,68.07951,0,0,1-4.939,10.07422l-5.5332,9.94434,0.0918,0.12988,10.90771-2.5918-0.64062-4.2373,6.40625-1.52246,2.52295,10.61914Z" fill="#fff"/>
      </g>
      <g id="_Группа_5" data-name="&lt;Группа&gt;">
        <path d="M46.32373,115.05371l2.09424,8.81641-2.35889.56055L43.522,113.75293l7.4707-1.77441,0.44238,1.86133Z" fill="#fff"/>
        <path d="M63.5166,114.64258c0.82617,3.47754-.72217,6.16211-3.9917,6.93945-3.33154.791-5.96387-.90039-6.79-4.37793-0.81592-3.43457.78906-6.15625,4.10059-6.94238C60.105,109.48438,62.6958,111.1875,63.5166,114.64258Zm-8.40186,1.99609c0.57031,2.40137,2.04785,3.55859,3.95215,3.10547,1.8623-.44141,2.63574-2.15527,2.06543-4.55566-0.55566-2.33887-2.0332-3.49707-3.89551-3.05469C55.37354,112.57617,54.55908,114.30078,55.11475,116.63867Z" fill="#fff"/>
        <path d="M76.06055,120.88867l-0.80615-3.39355-7.59521,1.80371,0.80615,3.39453-2.23486.53027-1.24854-5.25586,1.34473-.31934a19.23392,19.23392,0,0,0-.54687-7.916l-0.28516-1.19922,8.0293-1.90723,2.09473,8.81543,1.42822-.33984,1.24854,5.25586ZM71.63965,108.998l-3.45605.82031,0.17188,0.72363a20.32627,20.32627,0,0,1,.39258,6.53125l4.55322-1.08105Z" fill="#fff"/>
        <path d="M80.89209,104.52441c2.52539-.59961,4.60889-0.11035,5.1543,2.18652l1.28809,5.42188c0.14746,0.62109.31152,0.75781,0.74561,0.6543a2.92167,2.92167,0,0,0,.52783-0.16992l0.39355,1.65625a5.69578,5.69578,0,0,1-1.47656.5918,1.5721,1.5721,0,0,1-2.04346-.87109A5.45177,5.45177,0,0,1,82.04,116.168c-2.21387.52539-3.89014-.36621-4.35693-2.332-0.67383-2.835,1.91113-3.7334,3.978-4.50879,1.58643-.5957,2.0376-0.8125,2.19141-1.17676a1.32892,1.32892,0,0,0-.03662-0.7998c-0.26074-1.09668-1.0874-1.44727-2.57764-1.09375-1.53125.36426-2.07031,1.03906-1.92725,2.46973l-2.23535.53125C76.72021,106.56641,78.28467,105.14453,80.89209,104.52441Zm1.10742,6.31836c-1.05713.42676-2.25,0.92871-1.91553,2.33594,0.24072,1.01367,1.08252,1.4248,2.30322,1.13574a3.57727,3.57727,0,0,0,2.21973-1.42383,2.49468,2.49468,0,0,0,.03809-1.95508l-0.2998-1.26172A7.00582,7.00582,0,0,1,81.99951,110.84277Z" fill="#fff"/>
      </g>
      <g id="_Группа_6" data-name="&lt;Группа&gt;">
        <path d="M124.78564,59.7959l1.94531,8.19043-2.19189.52051-2.35645-9.91992,6.94043-1.64844,0.41064,1.72949Z" fill="#fff"/>
        <path d="M134.20215,55.40625c2.34521-.55762,4.28125-0.10254,4.78857,2.03125l1.19629,5.03613c0.13672,0.57715.28906,0.7041,0.69238,0.6084a2.8669,2.8669,0,0,0,.49072-0.15723l0.36475,1.53711a5.20053,5.20053,0,0,1-1.37158.5498,1.45974,1.45974,0,0,1-1.89795-.80762,5.068,5.068,0,0,1-3.19678,2.01855c-2.05713.48828-3.61475-.33984-4.04834-2.166-0.626-2.63379,1.77539-3.46875,3.69678-4.18848,1.47266-.55371,1.89209-0.75488,2.03564-1.09277a1.24454,1.24454,0,0,0-.03516-0.74414c-0.24219-1.01855-1.00977-1.34375-2.39453-1.01465-1.42187.33789-1.92285,0.96387-1.79053,2.29395l-2.07568.49316C130.32666,57.30273,131.77979,55.98145,134.20215,55.40625Zm1.02881,5.87012c-0.98242.39551-2.09082,0.86133-1.78027,2.168,0.22363,0.94238,1.00537,1.3252,2.14014,1.05566a3.31267,3.31267,0,0,0,2.062-1.32227,2.32126,2.32126,0,0,0,.03613-1.81543l-0.2793-1.17285A6.535,6.535,0,0,1,135.231,61.27637Z" fill="#fff"/>
        <path d="M143.125,55.0127a3.78067,3.78067,0,0,1,2.84619-2.38086c2.75-.65332,5.01172,1.00293,5.77441,4.21289,0.74414,3.13379-.502,5.583-3.17383,6.21777a3.82031,3.82031,0,0,1-3.6001-.791l1.18311,4.97949-2.17236.5166-3.229-13.5918,2.05664-.48926Zm0.90186,3.625c0.51172,2.15332,1.86035,3.21387,3.60986,2.79883,1.67285-.39746,2.3999-1.95215,1.89795-4.06738-0.51172-2.15234-1.89355-3.26562-3.58545-2.86426C144.21924,54.916,143.51074,56.46484,144.02686,58.6377Z" fill="#fff"/>
        <path d="M156.63623,50.07617c2.34521-.55664,4.28125-0.10156,4.78809,2.03223l1.19678,5.03613c0.13721,0.57715.28857,0.7041,0.69287,0.60742a2.86961,2.86961,0,0,0,.49072-0.15625l0.36475,1.53711a5.26522,5.26522,0,0,1-1.37207.5498,1.46056,1.46056,0,0,1-1.89795-.80762,5.06548,5.06548,0,0,1-3.19678,2.01758c-2.05713.48926-3.61475-.33984-4.04883-2.166-0.62549-2.63379,1.77637-3.46875,3.69727-4.1875,1.47266-.55469,1.89258-0.75488,2.03516-1.09375a1.24308,1.24308,0,0,0-.03467-0.74414c-0.2417-1.01758-1.01025-1.34375-2.394-1.01465-1.42285.33789-1.92383,0.96484-1.791,2.29395l-2.07568.49316C152.76025,51.97266,154.21387,50.65234,156.63623,50.07617Zm1.02832,5.87109c-0.98242.39453-2.08984,0.86133-1.7793,2.168,0.22363,0.94238,1.00488,1.3252,2.13965,1.05566a3.31813,3.31813,0,0,0,2.06152-1.32227,2.31742,2.31742,0,0,0,.03613-1.81641l-0.27832-1.17285A6.54191,6.54191,0,0,1,157.66455,55.94727Z" fill="#fff"/>
        <path d="M165.50586,58.77539l-2.35645-9.91992,2.19189-.52148,0.92236,3.88281,4.34473-1.03223L169.686,47.30176l2.19141-.52051,2.35645,9.91992-2.19141.52051L171.01953,52.915l-4.34473,1.03223,1.02295,4.30664Z" fill="#fff"/>
        <path d="M178.99658,46.917l1.9458,8.19043-2.19141.52148-1.9458-8.19141-3.26855.77734L173.126,46.48535l8.72852-2.07422,0.41064,1.72949Z" fill="#fff"/>
        <path d="M185.46,54.03418l-2.35645-9.91992,2.19238-.52051,1.71729,7.22852,0.05664-.01367,1.99365-8.10937,2.76855-.6582,2.35645,9.91992-2.19141.52051-1.71729-7.22852-0.05762.01367L188.229,53.377Z" fill="#fff"/>
        <path d="M202.68506,49.94238l-0.9502-3.999-1.86426.44336-2.10742,4.72461-2.57617.6123,2.29785-5.03418a2.79592,2.79592,0,0,1-2.82812-2.415c-0.41113-1.73047.5-3.02344,2.61523-3.52539l5.24854-1.24707,2.35645,9.91992Zm-1.959-8.248-2.65332.63086a1.25326,1.25326,0,0,0-1.1792,1.62109,1.30686,1.30686,0,0,0,1.79053,1.03613l2.67188-.63477Z" fill="#fff"/>
        <path d="M212.52783,47.60449l-2.35645-9.91992,2.19189-.52051,0.92236,3.88281,4.34424-1.03223-0.92236-3.88281,2.19189-.52051,2.35645,9.91992-2.19189.52051L218.041,41.74512l-4.34424,1.03223,1.02295,4.30664Z" fill="#fff"/>
        <path d="M225.38086,33.74512c2.3457-.55762,4.28125-0.10156,4.78857,2.03223l1.19629,5.03613c0.13672,0.57715.28906,0.7041,0.69238,0.60742a2.85826,2.85826,0,0,0,.49121-0.15625l0.36523,1.53711a5.28034,5.28034,0,0,1-1.37256.5498,1.46056,1.46056,0,0,1-1.89795-.80762,5.06817,5.06817,0,0,1-3.19678,2.01758c-2.05664.48926-3.61475-.33984-4.04834-2.166-0.626-2.63379,1.77539-3.46875,3.69678-4.18848,1.47266-.55371,1.89209-0.75391,2.03564-1.09277a1.24034,1.24034,0,0,0-.03516-0.74414c-0.24219-1.01855-1.00977-1.34375-2.39355-1.01465-1.42285.33789-1.92383,0.96484-1.791,2.29395l-2.07617.49316C221.50537,35.6416,222.9585,34.32031,225.38086,33.74512Zm1.02881,5.87012c-0.98242.39551-2.09033,0.8623-1.77979,2.16895,0.22363,0.94238,1.00537,1.3252,2.13965,1.05566a3.32068,3.32068,0,0,0,2.062-1.32227,2.32164,2.32164,0,0,0,.03613-1.81641l-0.27832-1.17285A6.53046,6.53046,0,0,1,226.40967,39.61523Z" fill="#fff"/>
        <path d="M139.40137,86.61133a3.10978,3.10978,0,0,1-2.27588-.43262l-0.05762.01367,1.02734,4.3252-2.19141.52051-1.02734-4.3252-0.05859.01367A3.10013,3.10013,0,0,1,132.98,88.13672c-2.96045.7041-4.6582-1.6543-5.31543-4.42187-0.74512-3.13477.32764-5.46094,2.69238-6.02246a3.09072,3.09072,0,0,1,2.43359.498l0.05762-.01367-1.06836-4.499,2.19141-.52051,1.06836,4.499,0.05859-.01367a3.08707,3.08707,0,0,1,1.94922-1.53906c2.36475-.5625,4.36816,1.03223,5.1123,4.167C142.81738,83.03809,142.3623,85.9082,139.40137,86.61133Zm-6.11475-6.58984a1.82676,1.82676,0,0,0-2.06641-.74707c-1.48047.35156-1.86621,1.80371-1.355,3.958,0.44287,1.86328,1.40576,3.52344,3.13623,3.11328a1.66582,1.66582,0,0,0,1.43164-1.498Zm3.70117-2.11719A1.82645,1.82645,0,0,0,135.478,79.501l1.14648,4.82617a1.66384,1.66384,0,0,0,1.95215.69336c1.73047-.41113,1.84375-2.32715,1.40088-4.19141C139.46631,78.67578,138.46826,77.55273,136.98779,77.9043Z" fill="#fff"/>
        <path d="M150.019,83.60254c-0.25928,2.07227-.30469,4.27637-2.74609,4.85645a10.42959,10.42959,0,0,1-1.5459.24512l-0.43848-1.8457a5.75,5.75,0,0,0,1.18555-.13867c1.11523-.26465,1.07422-1.71875,1.15723-2.65234l-6.09473-8.72656,2.40332-.57031,4.38867,6.67383,0.76367-7.89844,2.2876-.543Z" fill="#fff"/>
        <path d="M155.02,73.53906a3.77907,3.77907,0,0,1,2.84668-2.38184c2.749-.65332,5.01074,1.00293,5.77344,4.21289,0.74414,3.13379-.50146,5.583-3.17383,6.21777a3.82152,3.82152,0,0,1-3.59961-.79l1.18262,4.97949L155.877,86.293l-3.229-13.5918,2.05713-.48828Zm0.90234,3.624c0.51123,2.15332,1.85986,3.21484,3.60938,2.79883,1.67285-.39746,2.3999-1.95117,1.89746-4.06641-0.51172-2.15234-1.89307-3.26758-3.585-2.86523C156.11426,73.44141,155.40576,74.99023,155.92236,77.16309Z" fill="#fff"/>
        <path d="M166.7124,79.83984l-2.35693-9.91992,2.19189-.52051,0.92236,3.88281L171.81445,72.25l-0.92236-3.88281,2.19141-.52051,2.35645,9.91992-2.19141.52051-1.02295-4.30664-4.34473,1.03223,1.02295,4.30664Z" fill="#fff"/>
        <path d="M177.74658,77.21875l-2.35645-9.91992,2.19189-.52051,1.71729,7.22852,0.05762-.01367,1.99268-8.11035,2.76855-.65723,2.35693,9.91992-2.19141.52051-1.71777-7.22852-0.05762.01367-1.99316,8.10938Z" fill="#fff"/>
        <path d="M191.23779,65.36133l1.94531,8.19043-2.19141.52051-1.94531-8.19043-3.26855.77637-0.41113-1.72949,8.72852-2.07324,0.41113,1.72949Z" fill="#fff"/>
        <path d="M202.731,71.08008c-0.25879,2.07227-.30469,4.27637-2.74609,4.85645a10.42959,10.42959,0,0,1-1.5459.24512l-0.43848-1.8457a5.75,5.75,0,0,0,1.18555-.13867c1.11523-.26562,1.07422-1.71875,1.15723-2.65234l-6.09473-8.72656,2.40332-.57031,4.38867,6.67383,0.76367-7.89844,2.2876-.543Z" fill="#fff"/>
        <path d="M207.73193,61.0166a3.77987,3.77987,0,0,1,2.84668-2.38184c2.749-.65332,5.01123,1.00293,5.77393,4.21289,0.74463,3.13379-.502,5.583-3.17383,6.21777a3.82273,3.82273,0,0,1-3.6001-.79l1.18311,4.97949-2.17285.51563-3.229-13.5918,2.05713-.48828Zm0.90234,3.624c0.51123,2.1543,1.85986,3.21484,3.60938,2.79883,1.67285-.39746,2.40039-1.95117,1.89795-4.06641-0.51123-2.15234-1.89355-3.26758-3.58545-2.86523C208.82617,60.91895,208.11768,62.46875,208.63428,64.64063Z" fill="#fff"/>
        <path d="M224.22314,65.97461c-0.25928,2.07227-.30469,4.27637-2.74609,4.85645a10.42959,10.42959,0,0,1-1.5459.24512l-0.43848-1.8457a5.75,5.75,0,0,0,1.18555-.13867c1.11523-.26562,1.07422-1.71875,1.15723-2.65234l-6.09473-8.72656,2.40332-.57129,4.38867,6.6748,0.76367-7.89844,2.2876-.543Z" fill="#fff"/>
      </g>
    </g>
  </g>
</svg>
