<svg id="Designed_by_Freepik" data-name="Designed by Freepik" xmlns="http://www.w3.org/2000/svg" viewBox="0 0 269.15564 149.33333">
  <title>Ярлыки</title>
  <g id="Objects">
    <g>
      <path id="_Контур_" data-name="&lt;Контур&gt;" d="M76.08347,147.3158A57.17411,57.17411,0,0,0,107.399,127.47988l7.74237-1.85969c0.42272-.567.83128-1.14391,1.23332-1.72535L256.199,90.30952,269.15564,42.8497,235.61073,4.59513,95.787,38.18032c-0.587-.31641-1.17744-0.62654-1.775-0.92312l-7.73611,1.85819A57.43344,57.43344,0,1,0,76.08347,147.3158Z" fill="#cec8cb"/>
      <g id="_Группа_" data-name="&lt;Группа&gt;">
        <polygon id="_Контур_2" data-name="&lt;Контур&gt;" points="253.137 88.305 60.211 134.645 39.623 48.931 232.549 2.59 266.094 40.845 253.137 88.305" fill="#cc2e2e" stroke="#fff" stroke-miterlimit="10" stroke-width="3"/>
        <polygon id="_Контур_3" data-name="&lt;Контур&gt;" points="247.671 83.371 81.33 123.326 63.579 49.423 229.92 9.468 258.842 42.451 247.671 83.371" fill="none" stroke="#fff" stroke-miterlimit="10" stroke-dasharray="3"/>
      </g>
      <path id="_Контур_4" data-name="&lt;Контур&gt;" d="M78.734,131.625l33.34525-8.00941A59.13028,59.13028,0,0,0,90.94982,35.25251l-33.4351,8.031Z" fill="#c12121"/>
      <g id="_Группа_2" data-name="&lt;Группа&gt;">
        <circle id="_Контур_5" data-name="&lt;Контур&gt;" cx="59.60705" cy="89.46013" r="57.43895" transform="translate(-19.24525 16.39556) rotate(-13.50638)" fill="#d83c38" stroke="#fff" stroke-miterlimit="10" stroke-width="3"/>
        <g id="_Группа_3" data-name="&lt;Группа&gt;">
          <circle cx="59.60713" cy="89.46014" r="51.81094" transform="translate(-19.24526 16.3956) rotate(-13.50639)" fill="none" stroke="#fff" stroke-miterlimit="10" stroke-dasharray="3.01345 3.01345"/>
        </g>
      </g>
      <g id="_Группа_4" data-name="&lt;Группа&gt;">
        <path d="M47.87207,103.51758l-1.31982-5.49512,10.061-17.7832a33.72015,33.72015,0,0,0,2.80664-6.68262A9.47562,9.47562,0,0,0,59.624,68.958a6.65861,6.65861,0,0,0-2.46387-3.9873,5.14464,5.14464,0,0,0-4.44629-.71289A5.37233,5.37233,0,0,0,48.771,67.29a8.65126,8.65126,0,0,0-.24951,5.61328l-8.16992,1.96191-0.09863-.15918a13.0183,13.0183,0,0,1,1.4209-10.48926q2.92456-4.85449,9.48486-6.43164,6.47314-1.5542,10.99268.91992a11.85478,11.85478,0,0,1,5.86719,8.084,13.02254,13.02254,0,0,1-.3999,7.52051,67.93846,67.93846,0,0,1-4.90088,10.0625l-5.49609,9.93164L57.314,94.43359l10.87451-2.6123-0.64941-4.22461,6.38672-1.53418,2.543,10.58594Z" fill="#fff"/>
      </g>
      <g id="_Группа_5" data-name="&lt;Группа&gt;">
        <path d="M46.15869,115.53906l2.10986,8.78516-2.35059.56445-2.55615-10.6416,7.44482-1.78809,0.4458,1.85645Z" fill="#fff"/>
        <path d="M63.30469,115.085c0.832,3.46484-.70508,6.14648-3.96338,6.92969-3.32031.79688-5.94873-.88379-6.78076-4.34863-0.82275-3.42383.77148-6.1416,4.07129-6.93359C59.88965,109.94922,62.47754,111.6416,63.30469,115.085Zm-8.373,2.01172c0.57471,2.39258,2.05078,3.543,3.94824,3.08691,1.85645-.44629,2.62256-2.15723,2.04785-4.5498-0.55957-2.33008-2.03613-3.48047-3.8916-3.03516S54.37207,114.76465,54.93164,117.09668Z" fill="#fff"/>
        <path d="M75.832,121.28125l-0.8125-3.38281-7.56836,1.81836,0.8125,3.38281-2.22754.53418-1.25781-5.23828,1.34082-.32129a19.19942,19.19942,0,0,0-.56543-7.8916l-0.2876-1.19727,8.002-1.92187,2.10986,8.78613,1.42285-.3418,1.25879,5.23828Zm-4.4375-11.84766-3.44434.82715,0.17334,0.72266a20.27908,20.27908,0,0,1,.40771,6.51074l4.53711-1.08984Z" fill="#fff"/>
        <path d="M80.61523,104.95117c2.51563-.60449,4.59473-0.123,5.14453,2.166l1.29785,5.40332c0.14844,0.61914.31152,0.75391,0.74512,0.64941a3.08741,3.08741,0,0,0,.52637-0.16895l0.39551,1.64844a5.6441,5.6441,0,0,1-1.47168.59473,1.56638,1.56638,0,0,1-2.03906-.8623,5.438,5.438,0,0,1-3.4248,2.1748c-2.207.53027-3.88135-.35449-4.35156-2.31348-0.67871-2.82617,1.89648-3.72852,3.95654-4.50586,1.5791-.59863,2.02881-0.81445,2.18115-1.17871a1.32413,1.32413,0,0,0-.03906-0.79883c-0.26221-1.09277-1.08691-1.43945-2.57227-1.083-1.52637.36621-2.062,1.041-1.916,2.4668l-2.22754.53516C76.46,106.99512,78.0166,105.5752,80.61523,104.95117Zm1.11914,6.2959c-1.05273.42773-2.24072,0.93066-1.9043,2.334,0.24316,1.00977,1.082,1.41895,2.29883,1.127a3.57168,3.57168,0,0,0,2.21094-1.4248,2.49567,2.49567,0,0,0,.0332-1.9502L84.0708,110.0752A6.96827,6.96827,0,0,1,81.73438,111.24707Z" fill="#fff"/>
      </g>
      <g id="_Группа_6" data-name="&lt;Группа&gt;">
        <path d="M122.26221,55.66309L123.7041,61.667l-1.60742.38574-1.74658-7.27246,5.08838-1.22168,0.30469,1.26855Z" fill="#fff"/>
        <path d="M129.15918,52.42578c1.71973-.41309,3.14063-0.084,3.5166,1.48047l0.88672,3.69336c0.10156,0.42285.21289,0.51563,0.50879,0.44434a2.09217,2.09217,0,0,0,.35938-0.11621l0.27148,1.12793a3.88569,3.88569,0,0,1-1.00537.40527,1.06961,1.06961,0,0,1-1.394-.58984,3.71481,3.71481,0,0,1-2.34131,1.4873,2.2193,2.2193,0,0,1-2.97412-1.582c-0.46387-1.93164,1.2959-2.54785,2.7041-3.0791,1.08008-.40918,1.38721-0.55664,1.49121-0.80566a0.90841,0.90841,0,0,0-.02637-0.5459c-0.17969-.74707-0.74316-0.98437-1.75879-0.74023a1.37793,1.37793,0,0,0-1.30859,1.68652l-1.52246.36621C126.31982,53.82422,127.3833,52.85254,129.15918,52.42578Zm0.76563,4.30371c-0.7207.293-1.53223,0.63672-1.30176,1.5957a1.13525,1.13525,0,0,0,1.57129.76953,2.43352,2.43352,0,0,0,1.51025-.97461,1.70173,1.70173,0,0,0,.02295-1.332l-0.207-.86035A4.75907,4.75907,0,0,1,129.9248,56.72949Z" fill="#fff"/>
        <path d="M135.70117,52.12207a2.77,2.77,0,0,1,2.084-1.75293c2.01514-.48437,3.67773.72656,4.24316,3.08008,0.55176,2.29785-.3584,4.09668-2.31689,4.56738a2.80272,2.80272,0,0,1-2.64209-.57324l0.87646,3.65039-1.59277.38281-2.39355-9.96484,1.50781-.3623Zm0.668,2.65625c0.37988,1.5791,1.37012,2.35449,2.65332,2.04688,1.22559-.29492,1.75684-1.43555,1.38477-2.98633-0.37891-1.57812-1.395-2.39355-2.63525-2.0957C136.50342,52.04785,135.9873,53.18555,136.36914,54.77832Z" fill="#fff"/>
        <path d="M145.59961,48.47754c1.71973-.41309,3.14063-0.084,3.5166,1.48047l0.88672,3.69336c0.10156,0.42285.21289,0.51465,0.50879,0.44336a2.09217,2.09217,0,0,0,.35938-0.11621l0.27148,1.12793a3.89543,3.89543,0,0,1-1.00537.40625,1.07141,1.07141,0,0,1-1.394-.58984,3.71356,3.71356,0,0,1-2.34131,1.48633,2.21917,2.21917,0,0,1-2.97363-1.582c-0.46387-1.93164,1.29639-2.54687,2.70361-3.07812,1.08008-.40918,1.38721-0.55762,1.49121-0.80664a0.90518,0.90518,0,0,0-.02637-0.54492c-0.17969-.74707-0.74316-0.98535-1.75879-0.74121a1.3791,1.3791,0,0,0-1.30859,1.6875l-1.52246.36523C142.76025,49.875,143.82373,48.90332,145.59961,48.47754Zm0.76563,4.30273c-0.7207.293-1.53223,0.63672-1.30176,1.5957a1.13485,1.13485,0,0,0,1.57129.76953,2.42975,2.42975,0,0,0,1.51025-.97363,1.70413,1.70413,0,0,0,.02295-1.333l-0.207-.86035A4.75,4.75,0,0,1,146.36523,52.78027Z" fill="#fff"/>
        <path d="M152.11816,54.8418l-1.74658-7.27246,1.60742-.38574,0.68408,2.84668,3.18457-.76562-0.68359-2.8457,1.60645-.38672,1.74707,7.27246-1.60645.38574-0.75879-3.15625-3.18457.76465,0.75781,3.15723Z" fill="#fff"/>
        <path d="M161.99072,46.12012l1.44189,6.00391-1.60645.38672-1.44238-6.00391-2.39648.5752-0.30469-1.26855,6.39941-1.53711,0.30469,1.26855Z" fill="#fff"/>
        <path d="M166.74121,51.33008l-1.74658-7.27246,1.60742-.38672,1.27295,5.2998,0.042-.00977,1.44727-5.95312,2.0293-.4873,1.74707,7.27246-1.60645.38574-1.27344-5.2998-0.042.00977-1.44727,5.95313Z" fill="#fff"/>
        <path d="M179.36719,48.29688l-0.70459-2.93262-1.36768.3291-1.53613,3.4707-1.88867.45313,1.67578-3.69629a2.05086,2.05086,0,0,1-2.0791-1.76758c-0.30518-1.26855.36182-2.21777,1.91162-2.58984l3.84814-.9248,1.74707,7.27246ZM177.91455,42.25l-1.94531.46777a0.91921,0.91921,0,0,0-.86182,1.19141,0.9586,0.9586,0,0,0,1.31445.75684l1.96-.4707Z" fill="#fff"/>
        <path d="M186.57813,46.56543L184.83105,39.293l1.60693-.38574,0.68408,2.8457,3.18457-.76465L189.623,38.1416l1.60693-.38574,1.74658,7.27246-1.60645.38574-0.75879-3.15723-3.18457.76563,0.75781,3.15625Z" fill="#fff"/>
        <path d="M195.978,36.377c1.71973-.41309,3.14063-0.084,3.51611,1.48047l0.8877,3.69336c0.10107,0.42285.21289,0.51465,0.50879,0.44336a2.05849,2.05849,0,0,0,.35938-0.11621l0.27051,1.12793a3.84863,3.84863,0,0,1-1.00488.40527,1.07015,1.07015,0,0,1-1.394-.58887,3.70962,3.70962,0,0,1-2.34131,1.48633,2.219,2.219,0,0,1-2.97363-1.582c-0.46387-1.93164,1.2959-2.54687,2.70361-3.07812,1.07959-.40918,1.38721-0.55762,1.49072-0.80664a0.89713,0.89713,0,0,0-.02637-0.54492c-0.17969-.74707-0.74316-0.98535-1.75781-0.74121a1.38026,1.38026,0,0,0-1.30957,1.6875l-1.52148.36523C193.13867,37.77441,194.20215,36.80273,195.978,36.377Zm0.76563,4.30273c-0.72021.293-1.53174,0.63672-1.30127,1.5957a1.13469,1.13469,0,0,0,1.57129.76953,2.43529,2.43529,0,0,0,1.50977-.97363,1.70413,1.70413,0,0,0,.02295-1.333l-0.20654-.86035A4.766,4.766,0,0,1,196.74365,40.67969Z" fill="#fff"/>
        <path d="M129.47461,75.94727l-3.82031.917-1.74658-7.27344,4.01709-.96484c1.353-.32422,2.3125.13086,2.583,1.25879a1.56716,1.56716,0,0,1-.67383,1.78613l0.00684,0.02832a1.8005,1.8005,0,0,1,1.81738,1.54688C131.97314,74.55566,131.19336,75.53418,129.47461,75.94727ZM125.80615,70.417l0.40283,1.67773,2.04395-.49023a0.84169,0.84169,0,0,0,.71973-1.09766,0.79881,0.79881,0,0,0-1.16553-.57031Zm0.68408,2.84766,0.48047,2.001,2.21289-.53125a0.95582,0.95582,0,0,0,.84766-1.24707,0.981,0.981,0,0,0-1.32812-.75391Z" fill="#fff"/>
        <path d="M136.78711,74.38379a3.55572,3.55572,0,0,1-4.48047-2.88867c-0.5752-2.39648.46484-4.27148,2.67773-4.80273a3.008,3.008,0,0,1,3.88184,1.88477l-1.5918.38281a1.62919,1.62919,0,0,0-1.97754-1.03125c-1.24072.29785-1.76514,1.4668-1.376,3.08789,0.38623,1.60742,1.33594,2.39258,2.56152,2.09863a1.77529,1.77529,0,0,0,1.36279-2.08594l1.57861-.37988A3.2878,3.2878,0,0,1,136.78711,74.38379Z" fill="#fff"/>
        <path d="M144.59131,72.56934a3.59035,3.59035,0,0,1-4.49072-2.93262c-0.54834-2.28223.53613-4.28711,2.5791-4.77734,2.12891-.51172,3.8291.73438,4.43164,3.24316l0.041,0.16895-5.37012,1.29c0.39453,1.45605,1.3125,2.11426,2.55273,1.81641a1.71541,1.71541,0,0,0,1.416-1.74121l1.53613-.36816A3.28392,3.28392,0,0,1,144.59131,72.56934Zm-1.6377-6.50879c-1.05713.25391-1.55322,1.10352-1.40039,2.42285l3.73486-.89648A1.93047,1.93047,0,0,0,142.95361,66.06055Z" fill="#fff"/>
        <path d="M156.88965,69.3623l-3.81934.917-1.74707-7.27344,4.01709-.96484c1.353-.3252,2.312.13086,2.58252,1.25879a1.56641,1.56641,0,0,1-.67334,1.78613l0.00684,0.02832a1.8,1.8,0,0,1,1.81689,1.54688C159.38818,67.9707,158.60938,68.94922,156.88965,69.3623ZM153.22119,63.832l0.40283,1.67773,2.04395-.49121a0.84126,0.84126,0,0,0,.72021-1.09766,0.79931,0.79931,0,0,0-1.16553-.56934Zm0.68408,2.84766,0.48047,2.001,2.21289-.53125a0.95564,0.95564,0,0,0,.84766-1.24707,0.981,0.981,0,0,0-1.32812-.75391Z" fill="#fff"/>
        <path d="M160.90332,68.39844L159.15625,61.125l1.60693-.38672,1.27295,5.2998,0.04248-.00977,1.44678-5.95312,2.02979-.4873,1.74658,7.27344-1.60645.38574-1.27344-5.2998-0.042.00977-1.44727,5.9541Z" fill="#fff"/>
        <path d="M175.49219,67.33789l-0.55469-2.31055-5.17285,1.24219,0.55469,2.31055-1.52148.36621-0.86035-3.58008,0.917-.21973a13.12425,13.12425,0,0,0-.38672-5.39258l-0.19629-.81836,5.46875-1.31348,1.44238,6.00488,0.97266-.23437,0.85938,3.5791Zm-3.03271-8.09668-2.354.56543,0.11816,0.49316a13.87007,13.87007,0,0,1,.2793,4.45117l3.10059-.74512Z" fill="#fff"/>
        <path d="M180.92383,63.58887l-3.55176.85352L175.625,57.16895l1.60693-.38574,0.63281,2.63574,1.93066-.46387A2.38962,2.38962,0,1,1,180.92383,63.58887Zm-1.02344-3.332-1.73437.417,0.51172,2.12793,1.76172-.42383a0.97478,0.97478,0,0,0,.792-1.293A1.03118,1.03118,0,0,0,179.90039,60.25684Zm4.35107-5.16016,1.74658,7.27344-1.60742.38672L182.644,55.4834Z" fill="#fff"/>
        <path d="M191.55273,54.37207a2.77374,2.77374,0,0,1,2.084-1.75293c2.01465-.4834,3.67773.72656,4.24316,3.08105,0.55176,2.29785-.3584,4.0957-2.31738,4.56641a2.80542,2.80542,0,0,1-2.64209-.57227l0.87646,3.64941-1.5918.38281-2.39355-9.96484,1.50781-.3623Zm0.668,2.65723c0.37939,1.5791,1.37109,2.35449,2.65332,2.0459,1.22656-.29395,1.75684-1.43555,1.38477-2.98633-0.37939-1.57812-1.39453-2.39258-2.63477-2.09473C192.35547,54.29883,191.83838,55.43652,192.2207,57.0293Z" fill="#fff"/>
        <path d="M201.45117,50.72656c1.71973-.41309,3.14111-0.083,3.5166,1.48145l0.88721,3.69238c0.10156,0.42285.21338,0.5166,0.50928,0.44531a2.1195,2.1195,0,0,0,.35938-0.11621l0.27148,1.12793a3.93409,3.93409,0,0,1-1.00586.4043,1.0696,1.0696,0,0,1-1.39355-.58887,3.72117,3.72117,0,0,1-2.3418,1.48633,2.21853,2.21853,0,0,1-2.97363-1.58105c-0.46387-1.93164,1.2959-2.54883,2.70361-3.08008,1.07959-.4082,1.38721-0.55566,1.4917-0.80469a0.91,0.91,0,0,0-.02686-0.5459c-0.1792-.74707-0.74316-0.98437-1.7583-0.74023a1.37866,1.37866,0,0,0-1.30957,1.68555l-1.52148.36621C198.6123,52.125,199.67578,51.15332,201.45117,50.72656Zm0.76563,4.30371c-0.71973.293-1.53125,0.63672-1.30127,1.5957a1.13558,1.13558,0,0,0,1.57178.77051,2.428,2.428,0,0,0,1.50977-.97559,1.69732,1.69732,0,0,0,.02344-1.33105l-0.207-.86035A4.76148,4.76148,0,0,1,202.2168,55.03027Z" fill="#fff"/>
        <path d="M211.5,56.4541a3.39137,3.39137,0,0,1-3.78271-1.22363,5.98179,5.98179,0,0,1-.91846-2.209,8.81887,8.81887,0,0,1-.10937-4.49121,3.47168,3.47168,0,0,1,2.55176-2.22363c0.87109-.2832,1.28662-0.35352,1.37109-0.74707l1.60693-.38574c0.13086,1.78809-1.23877,2.042-2.81494,2.55566-1.38281.4502-1.90088,1.76758-1.89453,3.3457l0.042-.00977a2.91637,2.91637,0,0,1,2.36133-2.14648c1.84668-.44336,3.647.66016,4.19531,2.94141A3.5179,3.5179,0,0,1,211.5,56.4541Zm-1.56348-6.19922c-1.16992.28125-1.74316,1.43164-1.38135,2.93945,0.3623,1.50879,1.3999,2.28906,2.56982,2.00781s1.73926-1.44629,1.377-2.95508C212.14355,50.75391,211.10645,49.97363,209.93652,50.25488Z" fill="#fff"/>
        <path d="M222.457,49.7666c0.56836,2.36816-.48242,4.20117-2.709,4.73633a3.63,3.63,0,0,1-4.63477-2.97266,3.63822,3.63822,0,0,1,2.7832-4.7373C220.123,46.25781,221.8916,47.41211,222.457,49.7666Zm-5.72266,1.375c0.39258,1.63477,1.40137,2.4209,2.69775,2.10938,1.26855-.30469,1.793-1.47461,1.3999-3.10937-0.38232-1.59277-1.39111-2.37793-2.65967-2.07324S216.35156,49.54883,216.73438,51.1416Z" fill="#fff"/>
        <path d="M226.29541,46.34082l1.44189,6.00391-1.60645.38672-1.44238-6.00391-2.39648.5752L221.9873,46.0332l6.39941-1.53711,0.30469,1.26953Z" fill="#fff"/>
        <path d="M234.96289,50.60938l-1.74658-7.27344,1.60693-.38574,1.27295,5.2998,0.04248-.01074,1.44678-5.95312,2.02979-.4873,1.74707,7.27344-1.60645.38574-1.27344-5.2998-0.042.01074-1.44727,5.95313Z" fill="#fff"/>
        <path d="M134.06152,90.51074l-3.06641-2.708-0.71729,1.23145,0.5415,2.25488-1.60742.38574-1.74707-7.27246,1.60742-.38574,0.77539,3.22754,2.12793-3.9248,1.959-.4707-2.13184,3.59766,4.20313,3.59668Z" fill="#fff"/>
        <path d="M142.74023,84.5791c0.56836,2.36816-.48242,4.20215-2.709,4.7373a3.96812,3.96812,0,0,1-1.85156-7.71094C140.40625,81.07031,142.1748,82.22559,142.74023,84.5791Zm-5.72266,1.375c0.39258,1.63477,1.40137,2.4209,2.69824,2.10938,1.26855-.30469,1.793-1.47363,1.40039-3.1084-0.38281-1.59277-1.3916-2.37988-2.66016-2.07422C137.1875,83.18555,136.63525,84.3623,137.01758,85.9541Z" fill="#fff"/>
        <path d="M144.96289,87.8916l-1.74707-7.27246,2.11328-.50781,3.418,5.292,0.0293-.00684,0.57031-6.25,2.11426-.50781,1.74707,7.27246-1.5498.373-1.16162-4.834-0.02881.00684-0.57227,5.25-1.62012.38965-2.89551-4.418-0.02832.00684,1.16113,4.834Z" fill="#fff"/>
        <path d="M154.88086,85.50977l-1.74707-7.27246,6.39844-1.53711,1.74707,7.27246-1.60645.38574L158.231,78.35449l-3.18555.76563L156.4873,85.124Z" fill="#fff"/>
        <path d="M167.78711,82.40918l-1.44189-6.00391-2.22656.53516,0.66553,3.208c0.40137,1.917-.1416,3.19531-1.45215,3.50977a3.2505,3.2505,0,0,1-1.02441.083l-0.30127-1.25488a1.91506,1.91506,0,0,0,.59521-0.06836c0.479-.11523.8916-0.57129,0.58105-2.04785l-0.90527-4.3291,5.37012-1.29,1.74707,7.27246Z" fill="#fff"/>
        <path d="M174.32422,81.09277a3.59016,3.59016,0,0,1-4.49072-2.93164c-0.54834-2.2832.53564-4.28809,2.57959-4.77832,2.12793-.51172,3.8291.73535,4.43164,3.24414l0.04,0.16895-5.37012,1.29c0.395,1.45605,1.31348,2.11426,2.55371,1.81641a1.71736,1.71736,0,0,0,1.41553-1.74219L177.02,77.792A3.28318,3.28318,0,0,1,174.32422,81.09277Zm-1.6377-6.50879c-1.05713.25391-1.55371,1.10352-1.40039,2.42383l3.73438-.89746A1.9305,1.9305,0,0,0,172.68652,74.584Z" fill="#fff"/>
        <path d="M183.73535,78.5791l-3.06641-2.707-0.71729,1.23047,0.5415,2.25488-1.60742.38672-1.74707-7.27246,1.60742-.38672,0.77539,3.22754,2.12793-3.9248,1.959-.4707-2.13184,3.59766,4.20313,3.59766Z" fill="#fff"/>
        <path d="M188.23682,71.14746l1.44189,6.00391-1.60645.38574-1.44238-6.00391-2.396.57617-0.30518-1.26855,6.39941-1.53711,0.30518,1.26855Z" fill="#fff"/>
        <path d="M196.67529,75.32227c-0.187,1.52051-.21582,3.13672-2.00537,3.56738a7.88885,7.88885,0,0,1-1.13477.18359l-0.32471-1.35352a4.17756,4.17756,0,0,0,.86963-0.10547c0.81836-.19629.78516-1.26172,0.84424-1.94727l-4.48682-6.38965,1.76172-.42383,3.23193,4.88867,0.54541-5.7959,1.67773-.40234Z" fill="#fff"/>
        <path d="M209.377,68.57324c0.56885,2.36816-.4248,4.18848-2.56738,4.70313a3.47711,3.47711,0,0,1-4.35742-2.5625l-1.311.31445,0.76514,3.18555-1.60645.38672-1.74707-7.27246,1.60645-.38574,0.69092,2.875,1.33887-.32227a3.45986,3.45986,0,0,1,2.76807-3.92969C207.09961,65.05078,208.81152,66.21973,209.377,68.57324Zm-5.44043,1.30664c0.39258,1.63477,1.33105,2.43848,2.55664,2.14453,1.19873-.28809,1.65234-1.44043,1.25977-3.0752-0.38281-1.59277-1.32129-2.39648-2.51953-2.1084S203.55371,68.28809,203.93652,69.87988Z" fill="#fff"/>
        <path d="M209.85059,64.61426l1.60742-.38672,1.44238,6.00391,2.48047-.5957-1.44238-6.00391,1.60742-.38574L216.98779,69.25l2.48047-.5957-1.44189-6.00391,1.60645-.38574,1.44238,6.00391,0.97266-.2334,0.85986,3.58008-1.55078.37207-0.55518-2.31152-9.2041,2.21094Z" fill="#fff"/>
        <path d="M223.291,69.07813l-1.74707-7.27246,1.60742-.38574,1.27246,5.2998,0.042-.01074,1.44727-5.95313,2.0293-.4873,1.74707,7.27246-1.60645.38574-1.27246-5.29883-0.042.00977-1.44824,5.95313Z" fill="#fff"/>
        <path d="M234.64844,66.60254a3.58941,3.58941,0,0,1-4.49121-2.93066c-0.54834-2.2832.53613-4.28809,2.5791-4.7793,2.12891-.51074,3.83008.73633,4.43262,3.24512l0.04,0.16895-5.37012,1.29c0.39453,1.45508,1.31348,2.11426,2.55273,1.81641a1.71646,1.71646,0,0,0,1.416-1.74219l1.53662-.36914A3.28318,3.28318,0,0,1,234.64844,66.60254Zm-1.6377-6.50781c-1.05713.25391-1.55371,1.10352-1.40137,2.42383l3.73535-.89746A1.93092,1.93092,0,0,0,233.01074,60.09473Z" fill="#fff"/>
      </g>
    </g>
  </g>
</svg>
